<?xml version="1.0" encoding="UTF-8"?>
<svg xmlns="http://www.w3.org/2000/svg" width="110" height="57" viewBox="0 0 110 57" fill="none">
  <path fill-rule="evenodd" clip-rule="evenodd" d="M61.0289 25.002L60.0808 11.33L69.3 1.29171L61.0289 25.002ZM41.7333 28.9225L34.5434 28.9058L44.3944 0.0480117L51.6161 0.000665303L41.7333 28.9225ZM33.665 28.9025L26.7277 28.9258L26.8099 18.0213L22.4576 28.9165L15.6078 28.9138L25.6703 0.0466811L33.309 0.0586879L32.9888 9.60681L36.8771 0.0346774L43.5385 0.0466811L33.665 28.9025ZM13.4697 19.4924C13.4688 19.4658 13.4741 19.4393 13.4851 19.4151C13.4962 19.3909 13.5127 19.3696 13.5334 19.353C13.5541 19.3364 13.5784 19.3249 13.6043 19.3194C13.6302 19.3139 13.657 19.3145 13.6826 19.3213C13.7082 19.3281 13.7319 19.3408 13.7517 19.3585C13.7716 19.3761 13.787 19.3982 13.7969 19.4229C13.8067 19.4476 13.8107 19.4743 13.8085 19.5009C13.8062 19.5274 13.7978 19.553 13.784 19.5757C12.8429 22.0564 12.1052 24.6103 11.5783 27.212C11.0585 30.2469 11.7102 33.2097 13.4551 35.7378C14.8372 37.6612 16.7621 39.1223 18.9801 39.9315C21.198 40.7407 23.6065 40.8606 25.893 40.2758C38.323 37.1189 49.4482 33.5645 61.4108 28.9225L53.7131 28.9031L53.0461 18.9796L49.61 28.8991L42.5905 28.9225L52.4998 0.0533498L59.1315 0.0120068L57.2281 5.78503L62.256 0L83.9111 0.0146712L82.267 4.61468L75.6672 4.63536L73.958 9.89423L80.4955 9.91757L78.3833 16.054L71.6761 16.1101L69.6779 22.4206L77.2384 22.4886L76.6735 24.8906L109.542 15.4819C109.629 15.4567 109.722 15.4652 109.802 15.5057C109.883 15.5463 109.946 15.6158 109.978 15.7006C110.009 15.7859 110.007 15.8797 109.974 15.964C109.94 16.0476 109.876 16.1151 109.795 16.1527L28.8068 53.1009C25.0033 54.82 21.3584 55.9637 17.2586 56.7193C14.2454 57.1894 11.4145 57.0707 8.45042 56.3505C5.79856 55.7003 3.60215 54.1965 2.02761 51.9545C0.453067 49.7119 -0.219181 47.1238 0.0625797 44.3937C1.16111 37.3236 3.78049 31.1344 8.08711 25.4414C9.61061 23.1261 11.323 21.2362 13.4697 19.4924Z" fill="white" fill-opacity="0.63"></path>
</svg>
