<?xml version="1.0" encoding="UTF-8"?>
<svg xmlns="http://www.w3.org/2000/svg" width="249" height="47" viewBox="0 0 249 47" fill="none">
  <path d="M161.536 13.6273L156.956 27.8511L151.439 13.7149H150.024L156.657 31.0595H157.278L162.021 15.7699L166.842 31.0595H167.466L174.067 13.7149H172.619L167.18 27.8393L162.541 13.6273H161.536ZM179.789 13.7V30.9187H188.209V29.8083H181.123V13.7H179.789ZM190.663 13.7V30.9187H199.082V29.8083H191.992V13.7H190.663ZM201.429 30.9187H202.763V13.7015H201.429V30.9187ZM175.996 30.9187H177.338V13.7015H175.996V30.9187ZM211.765 13.6099L204.65 30.9187H205.889L208.329 24.9708H215.851L218.283 30.9187H219.531L212.418 13.6099H211.765ZM212.076 15.7755L215.398 23.8675H208.783L212.076 15.7755ZM235.808 13.7338L229.262 21.7255L222.715 13.7338H221.378V30.9187H222.715V15.6798H222.764L229.262 23.7093L235.752 15.6798H235.808V30.9187H237.142V13.7338H235.808ZM248.183 16.523C247.097 15.1171 245.55 14.7833 244.366 14.7833C242.303 14.7833 240.743 16.1968 240.743 18.0665C240.743 22.647 248.922 20.4589 248.922 26.4795C248.922 29.1233 246.734 31.188 243.935 31.188C242.528 31.188 241.017 30.8025 239.529 29.6752V28.1147C241.203 29.7038 242.528 29.9557 243.861 29.9557C245.903 29.9557 247.482 28.468 247.482 26.5302C247.482 21.642 239.306 23.781 239.306 18.1167C239.306 15.5758 241.515 13.5618 244.242 13.5536C245.626 13.5536 247.393 14.1203 248.182 15.0644L248.183 16.523ZM107.006 13.7533V30.9663H115.85V28.7419H109.478V13.7533H107.006ZM117.434 13.7533V30.9663H126.278V28.7419H119.907V13.7533H117.434ZM127.872 13.7533V30.9663H137.863V28.7419H130.344V23.3965H137.386V21.1721H130.344V15.9736H137.635V13.7533H127.872ZM150.557 30.9622L147.371 22.9219C149.265 21.3553 149.48 20.2925 149.459 18.5708C149.432 15.5927 147.294 13.7538 143.811 13.7538H139.472V30.9689H141.945V23.2711C141.945 23.2711 143.987 23.2731 144.891 23.2675L148.001 30.9633H150.557V30.9622ZM141.945 21.277V15.8743H143.533C145.93 15.8743 146.889 16.8603 146.914 18.4725C146.94 19.9147 146.181 21.2765 143.533 21.2765L141.945 21.277ZM95.4201 13.7533V30.9377H105.392V28.7173H97.8895V23.3776H104.914V21.1608H97.8895V15.9721H105.167V13.7533H95.4201ZM91.0196 13.7533L90.1461 14.6994L83.8119 21.5954V13.7533H81.344V30.9034H83.8119V25.0163L86.5571 22.006L90.1522 30.9069H92.6994V30.9049L91.8009 28.6922L88.3163 20.0734L92.0665 15.9659L94.0861 13.7533H91.0196Z" fill="white" fill-opacity="0.63"></path>
  <path d="M81.335 39.1593H83.1873C84.6047 39.1593 85.4745 39.7163 85.4745 41.2348C85.4745 41.782 85.2821 42.4097 84.8068 42.7133C85.7069 42.8756 86.1121 43.7874 86.1121 44.6265C86.1121 46.126 85.0601 46.7941 83.6734 46.7941H81.3355L81.335 39.1593ZM82.8235 42.3385H83.0051C83.7338 42.3385 84.0879 42.1261 84.0879 41.3361C84.0879 40.5569 83.6422 40.3537 83.0154 40.3537H82.8235V42.3385ZM82.8235 45.5992H83.1371C83.9364 45.5992 84.6241 45.4978 84.6241 44.5051C84.6241 43.5125 83.8156 43.4725 83.0655 43.4725H82.823L82.8235 45.5992ZM91.2531 45.4978H93.3582V46.7946H89.7656V39.1593H91.2531V45.4978ZM98.2264 45.184L97.5991 46.7946H96.0302L99.0057 38.9565H100.16L103.054 46.7946H101.465L100.878 45.184H98.2264ZM99.5113 41.1948H99.4913L98.6506 43.9696H100.462L99.5113 41.1948ZM111.444 41.1846C111.029 40.6772 110.402 40.3752 109.764 40.3752C108.337 40.3752 107.517 41.6909 107.517 43.0077C107.517 44.2932 108.367 45.5798 109.753 45.5798C110.391 45.5798 111.028 45.2449 111.444 44.7693V46.5407C110.887 46.8049 110.33 46.9969 109.713 46.9969C107.568 46.9969 105.979 45.1446 105.979 43.0384C105.979 40.8718 107.506 38.9576 109.744 38.9576C110.341 38.9576 110.927 39.1199 111.443 39.403L111.444 41.1846ZM119.125 39.1593H120.957L118.063 42.6831L121.119 46.7941H119.206L116.767 43.3609H116.747V46.7941H115.259V39.1593H116.747V42.3795H116.767L119.125 39.1593ZM130.126 39.1593H132.25C134.456 39.1593 135.934 40.8104 135.934 42.9867C135.934 45.1338 134.415 46.7946 132.24 46.7946H130.125L130.126 39.1593ZM131.613 45.4978H131.856C133.689 45.4978 134.396 44.4847 134.396 42.9764C134.396 41.3167 133.546 40.4556 131.856 40.4556H131.613V45.4978ZM140.985 46.7946H139.497V39.1593H140.985V46.7946ZM146.459 45.184L145.832 46.7946H144.264L147.239 38.9565H148.393L151.287 46.7946H149.698L149.112 45.184H146.459ZM147.745 41.1948H147.725L146.885 43.9696H148.697L147.745 41.1948ZM160.275 42.0549H160.254L158.523 46.895H158.007L156.337 42.0549H156.317L155.638 46.7946H154.14L155.426 38.9565H156.478L158.361 43.9891L160.163 38.9565H161.236L162.378 46.7946H160.88L160.275 42.0549ZM169.282 46.9963C166.954 46.9963 165.507 45.2147 165.507 42.9667C165.507 40.6982 167.004 38.9565 169.282 38.9565C171.559 38.9565 173.057 40.6982 173.057 42.9667C173.057 45.2142 171.609 46.9963 169.282 46.9963ZM169.282 40.4254C167.875 40.4254 167.045 41.6704 167.045 42.9058C167.045 44.0807 167.631 45.5286 169.282 45.5286C170.932 45.5286 171.518 44.0807 171.518 42.9058C171.518 41.6699 170.689 40.4254 169.282 40.4254ZM176.619 38.9571H177.693L181.71 44.2932H181.73V39.1593H183.218V46.9457H182.144L178.126 41.6095H178.105V46.7946H176.618L176.619 38.9571ZM187.134 39.1593H189.259C191.465 39.1593 192.942 40.8104 192.942 42.9867C192.942 45.1338 191.424 46.7946 189.249 46.7946H187.132V39.1593H187.134ZM188.622 45.4978H188.865C190.697 45.4978 191.406 44.4847 191.406 42.9764C191.406 41.3167 190.556 40.4556 188.865 40.4556H188.622V45.4978ZM207.425 46.7946H205.624L203.771 43.7157H203.751V46.7946H202.263V39.1593H204.278C205.786 39.1593 206.828 39.8279 206.828 41.457C206.828 42.4292 206.291 43.4014 205.269 43.5739L207.425 46.7946ZM203.751 42.6729H203.943C204.764 42.6729 205.34 42.4297 205.34 41.4979C205.34 40.5569 204.742 40.3752 203.953 40.3752H203.75L203.751 42.6729ZM212.231 40.455V42.1358H214.601V43.4321H212.231V45.4978H214.692V46.7946H210.745V39.1593H214.692V40.4545L212.231 40.455ZM220.077 45.184L219.449 46.7946H217.88L220.856 38.9565H222.01L224.903 46.7946H223.315L222.729 45.184H220.077ZM221.362 41.1948H221.342L220.501 43.9696H222.312L221.362 41.1948ZM229.68 45.4978H231.785V46.7946H228.192V39.1593H229.68V45.4978ZM237.27 46.7946H235.784V40.4556H234.244V39.1598H238.807V40.4556H237.27V46.7946ZM241.48 39.1593H243.211L244.547 41.8122L246.005 39.1593H247.746L245.338 43.2903V46.7941H243.85V43.2903L241.48 39.1593Z" fill="white" fill-opacity="0.63"></path>
  <path d="M0.763428 0V47H7.31653V35.9759L12.1215 31.1961L18.8043 47H25.4428L16.617 26.0304L22.8127 19.1604L34.8287 47H37.3508L46.3659 25.4689L55.5265 47H58.0125L71.743 15.302H65.0195L56.7547 34.5345L48.7384 15.302H44.1015L36.0187 34.5345L27.7077 15.302H18.9932L7.31653 26.9657V0H0.763428Z" fill="white" fill-opacity="0.63"></path>
</svg>
