<?xml version="1.0" encoding="UTF-8"?>
<svg xmlns="http://www.w3.org/2000/svg" width="236" height="41" viewBox="0 0 236 41" fill="none">
  <path d="M46.2693 39.4249H45.8021V28.9921H46.2693V39.4249ZM53.2609 39.4249H46.0357V38.9889H53.2609V39.4249ZM53.0273 34.3954H46.0357V33.9594H53.0273V34.3954ZM53.2609 29.4281H46.0357V28.9921H53.2609V29.4281Z" fill="white" fill-opacity="0.63"></path>
  <path d="M60.2642 39.4249H59.7971V28.9921H60.3421L66.7109 37.1982L67.8943 38.7086H67.941V28.9921H68.4082V39.4249H67.8632L61.6034 31.359L60.3109 29.7084H60.2642V39.4249Z" fill="white" fill-opacity="0.63"></path>
  <path d="M79.3762 39.4249H78.909V28.9921H79.3762V39.4249ZM83.8763 29.4281H74.4088V28.9921H83.8763V29.4281Z" fill="white" fill-opacity="0.63"></path>
  <path d="M90.3375 39.4249H89.8703V28.9921H90.3375V39.4249ZM97.3291 39.4249H90.1039V38.9889H97.3291V39.4249ZM97.0955 34.3954H90.1039V33.9594H97.0955V34.3954ZM97.3291 29.4281H90.1039V28.9921H97.3291V29.4281Z" fill="white" fill-opacity="0.63"></path>
  <path d="M104.332 39.4249H103.865V28.9921H108.63C109.295 28.9921 109.886 29.1115 110.405 29.3503C110.935 29.5787 111.35 29.916 111.651 30.3624C111.952 30.7984 112.103 31.3278 112.103 31.9507C112.103 32.5528 111.952 33.0718 111.651 33.5078C111.36 33.9438 110.961 34.2812 110.452 34.5199C109.954 34.7483 109.383 34.8625 108.739 34.8625V34.9092C109.009 34.9819 109.248 35.122 109.455 35.3296C109.673 35.5269 109.871 35.7604 110.047 36.0303L112.227 39.4249H111.698L109.627 36.2328C109.44 35.9317 109.232 35.6878 109.004 35.5009C108.776 35.3037 108.5 35.1583 108.179 35.0649C107.857 34.9611 107.447 34.9092 106.948 34.9092H104.332V39.4249ZM104.332 29.4281V34.4732H108.63C109.585 34.4732 110.322 34.2656 110.841 33.8504C111.36 33.4351 111.62 32.8019 111.62 31.9507C111.62 31.0994 111.36 30.4662 110.841 30.051C110.322 29.6357 109.585 29.4281 108.63 29.4281H104.332Z" fill="white" fill-opacity="0.63"></path>
  <path d="M122.983 35.7812H118.841V35.3452H122.983C124.042 35.3452 124.857 35.1064 125.428 34.6289C125.998 34.141 126.284 33.3936 126.284 32.3867C126.284 31.3901 125.998 30.6479 125.428 30.16C124.857 29.6721 124.042 29.4281 122.983 29.4281H118.841V28.9921H122.983C123.709 28.9921 124.358 29.1271 124.929 29.397C125.5 29.6565 125.947 30.0406 126.268 30.5493C126.601 31.0579 126.767 31.6704 126.767 32.3867C126.767 33.1029 126.601 33.7154 126.268 34.2241C125.947 34.7223 125.5 35.1064 124.929 35.3763C124.358 35.6462 123.709 35.7812 122.983 35.7812ZM118.996 39.4249H118.529V28.9921H118.996V39.4249Z" fill="white" fill-opacity="0.63"></path>
  <path d="M133.387 39.4249H132.92V28.9921H137.685C138.349 28.9921 138.941 29.1115 139.46 29.3503C139.989 29.5787 140.404 29.916 140.705 30.3624C141.006 30.7984 141.157 31.3278 141.157 31.9507C141.157 32.5528 141.006 33.0718 140.705 33.5078C140.415 33.9438 140.015 34.2812 139.506 34.5199C139.008 34.7483 138.437 34.8625 137.794 34.8625V34.9092C138.063 34.9819 138.302 35.122 138.51 35.3296C138.728 35.5269 138.925 35.7604 139.102 36.0303L141.282 39.4249H140.752L138.681 36.2328C138.494 35.9317 138.287 35.6878 138.058 35.5009C137.83 35.3037 137.555 35.1583 137.233 35.0649C136.911 34.9611 136.501 34.9092 136.003 34.9092H133.387V39.4249ZM133.387 29.4281V34.4732H137.685C138.64 34.4732 139.377 34.2656 139.896 33.8504C140.415 33.4351 140.674 32.8019 140.674 31.9507C140.674 31.0994 140.415 30.4662 139.896 30.051C139.377 29.6357 138.64 29.4281 137.685 29.4281H133.387Z" fill="white" fill-opacity="0.63"></path>
  <path d="M148.051 39.4249H147.584V28.9921H148.051V39.4249Z" fill="white" fill-opacity="0.63"></path>
  <path d="M158.685 39.5806C157.678 39.5806 156.858 39.4249 156.225 39.1134C155.591 38.802 155.13 38.392 154.839 37.8833C154.548 37.3643 154.403 36.8141 154.403 36.2328V36.1393H154.886V36.3106C154.886 36.9023 155.021 37.4058 155.29 37.821C155.56 38.2363 155.976 38.5581 156.536 38.7864C157.097 39.0044 157.813 39.1134 158.685 39.1134C159.422 39.1134 160.04 39.0356 160.538 38.8799C161.047 38.7138 161.431 38.4698 161.69 38.148C161.96 37.8158 162.095 37.411 162.095 36.9335C162.095 36.2172 161.877 35.6981 161.441 35.3763C161.005 35.0545 160.346 34.795 159.464 34.5978L157.611 34.1929C157.081 34.0684 156.578 33.9126 156.1 33.7258C155.633 33.5286 155.254 33.2535 154.963 32.9005C154.673 32.5476 154.527 32.0804 154.527 31.4991C154.527 31.1669 154.6 30.8451 154.745 30.5337C154.901 30.2119 155.135 29.9264 155.446 29.6773C155.768 29.4178 156.173 29.2153 156.661 29.07C157.159 28.9143 157.751 28.8364 158.436 28.8364C159.37 28.8364 160.133 28.9921 160.725 29.3036C161.317 29.615 161.753 30.025 162.033 30.5337C162.313 31.0423 162.453 31.5925 162.453 32.1842V32.2777H161.971V32.1064C161.971 31.5147 161.841 31.0112 161.581 30.596C161.322 30.1807 160.933 29.8641 160.413 29.6461C159.894 29.4281 159.235 29.3191 158.436 29.3191C157.678 29.3191 157.045 29.397 156.536 29.5527C156.027 29.7084 155.643 29.942 155.384 30.2534C155.135 30.5648 155.01 30.9541 155.01 31.4212C155.01 31.9091 155.109 32.2984 155.306 32.5891C155.503 32.8798 155.804 33.1133 156.209 33.2898C156.614 33.4559 157.128 33.6116 157.751 33.7569L159.573 34.1618C160.123 34.276 160.621 34.4369 161.067 34.6445C161.524 34.8417 161.888 35.1168 162.157 35.4698C162.438 35.8227 162.578 36.2847 162.578 36.8556C162.578 37.3124 162.438 37.7535 162.157 38.1792C161.877 38.5944 161.452 38.9318 160.881 39.1913C160.31 39.4508 159.578 39.5806 158.685 39.5806Z" fill="white" fill-opacity="0.63"></path>
  <path d="M169.472 39.4249H169.004V28.9921H169.472V39.4249ZM176.463 39.4249H169.238V38.9889H176.463V39.4249ZM176.23 34.3954H169.238V33.9594H176.23V34.3954ZM176.463 29.4281H169.238V28.9921H176.463V29.4281Z" fill="white" fill-opacity="0.63"></path>
  <path d="M186.705 39.5806C185.698 39.5806 184.878 39.4249 184.245 39.1134C183.612 38.802 183.15 38.392 182.859 37.8833C182.569 37.3643 182.423 36.8141 182.423 36.2328V36.1393H182.906V36.3106C182.906 36.9023 183.041 37.4058 183.311 37.821C183.581 38.2363 183.996 38.5581 184.556 38.7864C185.117 39.0044 185.833 39.1134 186.705 39.1134C187.442 39.1134 188.06 39.0356 188.558 38.8799C189.067 38.7138 189.451 38.4698 189.711 38.148C189.981 37.8158 190.116 37.411 190.116 36.9335C190.116 36.2172 189.898 35.6981 189.462 35.3763C189.026 35.0545 188.366 34.795 187.484 34.5978L185.631 34.1929C185.101 34.0684 184.598 33.9126 184.12 33.7258C183.653 33.5286 183.274 33.2535 182.984 32.9005C182.693 32.5476 182.548 32.0804 182.548 31.4991C182.548 31.1669 182.62 30.8451 182.766 30.5337C182.921 30.2119 183.155 29.9264 183.466 29.6773C183.788 29.4178 184.193 29.2153 184.681 29.07C185.179 28.9143 185.771 28.8364 186.456 28.8364C187.391 28.8364 188.154 28.9921 188.745 29.3036C189.337 29.615 189.773 30.025 190.053 30.5337C190.334 31.0423 190.474 31.5925 190.474 32.1842V32.2777H189.991V32.1064C189.991 31.5147 189.861 31.0112 189.602 30.596C189.342 30.1807 188.953 29.8641 188.434 29.6461C187.915 29.4281 187.256 29.3191 186.456 29.3191C185.698 29.3191 185.065 29.397 184.556 29.5527C184.048 29.7084 183.664 29.942 183.404 30.2534C183.155 30.5648 183.03 30.9541 183.03 31.4212C183.03 31.9091 183.129 32.2984 183.326 32.5891C183.524 32.8798 183.825 33.1133 184.229 33.2898C184.634 33.4559 185.148 33.6116 185.771 33.7569L187.593 34.1618C188.143 34.276 188.641 34.4369 189.088 34.6445C189.545 34.8417 189.908 35.1168 190.178 35.4698C190.458 35.8227 190.598 36.2847 190.598 36.8556C190.598 37.3124 190.458 37.7535 190.178 38.1792C189.898 38.5944 189.472 38.9318 188.901 39.1913C188.33 39.4508 187.598 39.5806 186.705 39.5806Z" fill="white" fill-opacity="0.63"></path>
  <path d="M46.2693 39.4249H45.8021V28.9921H46.2693V39.4249ZM53.2609 39.4249H46.0357V38.9889H53.2609V39.4249ZM53.0273 34.3954H46.0357V33.9594H53.0273V34.3954ZM53.2609 29.4281H46.0357V28.9921H53.2609V29.4281Z" stroke="white" stroke-opacity="0.63"></path>
  <path d="M60.2642 39.4249H59.7971V28.9921H60.3421L66.7109 37.1982L67.8943 38.7086H67.941V28.9921H68.4082V39.4249H67.8632L61.6034 31.359L60.3109 29.7084H60.2642V39.4249Z" stroke="white" stroke-opacity="0.63"></path>
  <path d="M79.3762 39.4249H78.909V28.9921H79.3762V39.4249ZM83.8763 29.4281H74.4088V28.9921H83.8763V29.4281Z" stroke="white" stroke-opacity="0.63"></path>
  <path d="M90.3375 39.4249H89.8703V28.9921H90.3375V39.4249ZM97.3291 39.4249H90.1039V38.9889H97.3291V39.4249ZM97.0955 34.3954H90.1039V33.9594H97.0955V34.3954ZM97.3291 29.4281H90.1039V28.9921H97.3291V29.4281Z" stroke="white" stroke-opacity="0.63"></path>
  <path d="M104.332 39.4249H103.865V28.9921H108.63C109.295 28.9921 109.886 29.1115 110.405 29.3503C110.935 29.5787 111.35 29.916 111.651 30.3624C111.952 30.7984 112.103 31.3278 112.103 31.9507C112.103 32.5528 111.952 33.0718 111.651 33.5078C111.36 33.9438 110.961 34.2812 110.452 34.5199C109.954 34.7483 109.383 34.8625 108.739 34.8625V34.9092C109.009 34.9819 109.248 35.122 109.455 35.3296C109.673 35.5269 109.871 35.7604 110.047 36.0303L112.227 39.4249H111.698L109.627 36.2328C109.44 35.9317 109.232 35.6878 109.004 35.5009C108.776 35.3037 108.5 35.1583 108.179 35.0649C107.857 34.9611 107.447 34.9092 106.948 34.9092H104.332V39.4249ZM104.332 29.4281V34.4732H108.63C109.585 34.4732 110.322 34.2656 110.841 33.8504C111.36 33.4351 111.62 32.8019 111.62 31.9507C111.62 31.0994 111.36 30.4662 110.841 30.051C110.322 29.6357 109.585 29.4281 108.63 29.4281H104.332Z" stroke="white" stroke-opacity="0.63"></path>
  <path d="M122.983 35.7812H118.841V35.3452H122.983C124.042 35.3452 124.857 35.1064 125.428 34.6289C125.998 34.141 126.284 33.3936 126.284 32.3867C126.284 31.3901 125.998 30.6479 125.428 30.16C124.857 29.6721 124.042 29.4281 122.983 29.4281H118.841V28.9921H122.983C123.709 28.9921 124.358 29.1271 124.929 29.397C125.5 29.6565 125.947 30.0406 126.268 30.5493C126.601 31.0579 126.767 31.6704 126.767 32.3867C126.767 33.1029 126.601 33.7154 126.268 34.2241C125.947 34.7223 125.5 35.1064 124.929 35.3763C124.358 35.6462 123.709 35.7812 122.983 35.7812ZM118.996 39.4249H118.529V28.9921H118.996V39.4249Z" stroke="white" stroke-opacity="0.63"></path>
  <path d="M133.387 39.4249H132.92V28.9921H137.685C138.349 28.9921 138.941 29.1115 139.46 29.3503C139.989 29.5787 140.404 29.916 140.705 30.3624C141.006 30.7984 141.157 31.3278 141.157 31.9507C141.157 32.5528 141.006 33.0718 140.705 33.5078C140.415 33.9438 140.015 34.2812 139.506 34.5199C139.008 34.7483 138.437 34.8625 137.794 34.8625V34.9092C138.063 34.9819 138.302 35.122 138.51 35.3296C138.728 35.5269 138.925 35.7604 139.102 36.0303L141.282 39.4249H140.752L138.681 36.2328C138.494 35.9317 138.287 35.6878 138.058 35.5009C137.83 35.3037 137.555 35.1583 137.233 35.0649C136.911 34.9611 136.501 34.9092 136.003 34.9092H133.387V39.4249ZM133.387 29.4281V34.4732H137.685C138.64 34.4732 139.377 34.2656 139.896 33.8504C140.415 33.4351 140.674 32.8019 140.674 31.9507C140.674 31.0994 140.415 30.4662 139.896 30.051C139.377 29.6357 138.64 29.4281 137.685 29.4281H133.387Z" stroke="white" stroke-opacity="0.63"></path>
  <path d="M148.051 39.4249H147.584V28.9921H148.051V39.4249Z" stroke="white" stroke-opacity="0.63"></path>
  <path d="M158.685 39.5806C157.678 39.5806 156.858 39.4249 156.225 39.1134C155.591 38.802 155.13 38.392 154.839 37.8833C154.548 37.3643 154.403 36.8141 154.403 36.2328V36.1393H154.886V36.3106C154.886 36.9023 155.021 37.4058 155.29 37.821C155.56 38.2363 155.976 38.5581 156.536 38.7864C157.097 39.0044 157.813 39.1134 158.685 39.1134C159.422 39.1134 160.04 39.0356 160.538 38.8799C161.047 38.7138 161.431 38.4698 161.69 38.148C161.96 37.8158 162.095 37.411 162.095 36.9335C162.095 36.2172 161.877 35.6981 161.441 35.3763C161.005 35.0545 160.346 34.795 159.464 34.5978L157.611 34.1929C157.081 34.0684 156.578 33.9126 156.1 33.7258C155.633 33.5286 155.254 33.2535 154.963 32.9005C154.673 32.5476 154.527 32.0804 154.527 31.4991C154.527 31.1669 154.6 30.8451 154.745 30.5337C154.901 30.2119 155.135 29.9264 155.446 29.6773C155.768 29.4178 156.173 29.2153 156.661 29.07C157.159 28.9143 157.751 28.8364 158.436 28.8364C159.37 28.8364 160.133 28.9921 160.725 29.3036C161.317 29.615 161.753 30.025 162.033 30.5337C162.313 31.0423 162.453 31.5925 162.453 32.1842V32.2777H161.971V32.1064C161.971 31.5147 161.841 31.0112 161.581 30.596C161.322 30.1807 160.933 29.8641 160.413 29.6461C159.894 29.4281 159.235 29.3191 158.436 29.3191C157.678 29.3191 157.045 29.397 156.536 29.5527C156.027 29.7084 155.643 29.942 155.384 30.2534C155.135 30.5648 155.01 30.9541 155.01 31.4212C155.01 31.9091 155.109 32.2984 155.306 32.5891C155.503 32.8798 155.804 33.1133 156.209 33.2898C156.614 33.4559 157.128 33.6116 157.751 33.7569L159.573 34.1618C160.123 34.276 160.621 34.4369 161.067 34.6445C161.524 34.8417 161.888 35.1168 162.157 35.4698C162.438 35.8227 162.578 36.2847 162.578 36.8556C162.578 37.3124 162.438 37.7535 162.157 38.1792C161.877 38.5944 161.452 38.9318 160.881 39.1913C160.31 39.4508 159.578 39.5806 158.685 39.5806Z" stroke="white" stroke-opacity="0.63"></path>
  <path d="M169.472 39.4249H169.004V28.9921H169.472V39.4249ZM176.463 39.4249H169.238V38.9889H176.463V39.4249ZM176.23 34.3954H169.238V33.9594H176.23V34.3954ZM176.463 29.4281H169.238V28.9921H176.463V29.4281Z" stroke="white" stroke-opacity="0.63"></path>
  <path d="M186.705 39.5806C185.698 39.5806 184.878 39.4249 184.245 39.1134C183.612 38.802 183.15 38.392 182.859 37.8833C182.569 37.3643 182.423 36.8141 182.423 36.2328V36.1393H182.906V36.3106C182.906 36.9023 183.041 37.4058 183.311 37.821C183.581 38.2363 183.996 38.5581 184.556 38.7864C185.117 39.0044 185.833 39.1134 186.705 39.1134C187.442 39.1134 188.06 39.0356 188.558 38.8799C189.067 38.7138 189.451 38.4698 189.711 38.148C189.981 37.8158 190.116 37.411 190.116 36.9335C190.116 36.2172 189.898 35.6981 189.462 35.3763C189.026 35.0545 188.366 34.795 187.484 34.5978L185.631 34.1929C185.101 34.0684 184.598 33.9126 184.12 33.7258C183.653 33.5286 183.274 33.2535 182.984 32.9005C182.693 32.5476 182.548 32.0804 182.548 31.4991C182.548 31.1669 182.62 30.8451 182.766 30.5337C182.921 30.2119 183.155 29.9264 183.466 29.6773C183.788 29.4178 184.193 29.2153 184.681 29.07C185.179 28.9143 185.771 28.8364 186.456 28.8364C187.391 28.8364 188.154 28.9921 188.745 29.3036C189.337 29.615 189.773 30.025 190.053 30.5337C190.334 31.0423 190.474 31.5925 190.474 32.1842V32.2777H189.991V32.1064C189.991 31.5147 189.861 31.0112 189.602 30.596C189.342 30.1807 188.953 29.8641 188.434 29.6461C187.915 29.4281 187.256 29.3191 186.456 29.3191C185.698 29.3191 185.065 29.397 184.556 29.5527C184.048 29.7084 183.664 29.942 183.404 30.2534C183.155 30.5648 183.03 30.9541 183.03 31.4212C183.03 31.9091 183.129 32.2984 183.326 32.5891C183.524 32.8798 183.825 33.1133 184.229 33.2898C184.634 33.4559 185.148 33.6116 185.771 33.7569L187.593 34.1618C188.143 34.276 188.641 34.4369 189.088 34.6445C189.545 34.8417 189.908 35.1168 190.178 35.4698C190.458 35.8227 190.598 36.2847 190.598 36.8556C190.598 37.3124 190.458 37.7535 190.178 38.1792C189.898 38.5944 189.472 38.9318 188.901 39.1913C188.33 39.4508 187.598 39.5806 186.705 39.5806Z" stroke="white" stroke-opacity="0.63"></path>
  <path d="M4.88391 19.6262V20.0604H21.0654L22.7154 14.6762L22.3391 14.5025C20.1101 18.2078 19.3864 19.5683 14.9865 19.2499L11.4549 18.9893C11.0207 17.5999 11.0207 16.0657 11.0207 14.6183V5.12365C11.0207 2.14209 11.1365 1.27367 14.6102 0.810521V0.376314H4.88391V0.810521C8.35757 1.27367 8.38652 2.14209 8.47336 5.12365V15.3131C8.38652 18.2946 8.35757 19.163 4.88391 19.6262Z" fill="white" fill-opacity="0.63"></path>
  <path d="M28.6104 19.6262V20.0604H44.705C45.284 18.3236 45.6603 16.5288 45.6893 14.3289H45.255C44.5314 17.9762 42.7366 19.3657 39.0893 19.3657C34.342 19.3657 34.7472 16.992 34.7472 15.2841V10.5368H37.7577C39.9288 10.5368 41.5209 10.5657 41.8972 13.1131H42.3314V6.65785H41.8972C41.5788 9.14731 39.9288 9.32099 37.7577 9.32099H34.7472V1.07105H37.5551C40.4788 1.07105 43.1708 1.09999 43.3735 4.83418H43.8077L44.1551 0.376314H28.6104V0.810521C32.0841 1.27367 32.113 2.14209 32.1999 5.12365V15.3131C32.113 18.2946 32.0841 19.163 28.6104 19.6262Z" fill="white" fill-opacity="0.63"></path>
  <path d="M64.5094 5.47102L64.741 1.12894C63.4673 0.434207 61.991 0 60.5147 0C57.4174 0 54.0595 2.14209 54.0595 5.52891C54.0595 11.3183 62.9173 10.8552 62.9173 16.0078C62.9173 18.2657 61.2384 19.5393 59.0963 19.5393C55.9121 19.5393 53.9727 16.7894 53.249 14.0104H52.7279L53.5674 18.9315C55.0437 19.8867 56.8963 20.4078 58.6621 20.4078C61.991 20.4078 65.6963 18.4683 65.6963 14.7341C65.6963 8.88678 56.5779 9.06046 56.5779 4.0526C56.5779 2.14209 58.1121 0.868414 59.9647 0.868414C62.8305 0.868414 63.5831 3.12629 64.0463 5.47102H64.5094Z" fill="white" fill-opacity="0.63"></path>
  <path d="M92.6404 9.63941V0.984203C95.593 0.984203 98.6615 2.05525 98.6615 5.52891C98.6615 8.88678 95.3325 9.61046 92.6404 9.63941ZM92.6404 15.0525V10.2473L93.7694 10.1894C98.0825 9.98678 99.7325 13.4894 99.7325 15.2552C99.7325 17.8025 97.9667 19.4525 95.4483 19.4525C92.4957 19.4525 92.6404 17.3104 92.6404 15.0525ZM96.4036 9.66836V9.61046C98.6904 9.03152 101.527 7.93153 101.527 5.0947C101.527 0.521049 95.7957 0.202629 92.5536 0.318418L86.6773 0.549996V0.984203C89.9773 1.41841 90.0062 2.28683 90.0931 5.26839V15.3131C90.0062 18.2946 89.9773 19.163 86.5036 19.6262V20.0604L94.4641 20.1183C95.9115 20.1472 102.83 20.263 102.83 14.9078C102.83 11.492 99.0378 10.2762 96.4036 9.66836Z" fill="white" fill-opacity="0.63"></path>
  <path d="M116.932 10.1605V0.92631C119.971 0.897361 122.953 2.25788 122.953 5.6447C122.953 8.85783 119.711 10.1315 116.932 10.1605ZM114.384 6.33943V15.3131C114.297 18.2946 114.269 19.163 110.795 19.6262V20.0604H120.955V19.6262C116.99 19.0762 116.932 18.4972 116.932 15.3131V10.6526C118.958 10.9999 120 10.3052 121.158 12.7078C121.766 13.9525 123.271 16.4999 125.182 18.4972C126.861 20.2341 129.118 20.1472 132.187 20.292L132.274 19.8578C127.497 18.8736 124.718 13.8946 122.49 9.98678L122.345 9.78414C124.429 8.85783 125.934 7.46837 125.934 5.03681C125.934 3.64734 125.355 0.0868404 118.061 0.318418L110.997 0.549996V0.955257C114.24 1.24473 114.384 1.91051 114.384 6.33943Z" fill="white" fill-opacity="0.63"></path>
  <path d="M158.158 10.2184C158.158 5.06576 154.945 0.0289468 147.534 0.0289468C141.484 0.0289468 136.969 4.02366 136.969 10.1894C136.969 16.442 141.456 20.4078 147.563 20.4078C153.642 20.4078 158.158 16.442 158.158 10.2184ZM140.327 9.49467C140.327 5.58681 142.324 0.723679 147.303 0.723679C151.732 0.723679 154.713 5.58681 154.8 10.7105C154.8 14.8499 152.687 19.713 147.911 19.713C142.7 19.713 140.327 13.9815 140.327 9.49467Z" fill="white" fill-opacity="0.63"></path>
  <path d="M172.367 20.7262L178.185 4.63155L183.338 20.7262H183.656L187.911 8.97362L189.938 3.44471C190.545 1.91051 191.414 0.92631 193.151 0.810521V0.376314H185.595V0.810521C187.188 1.15789 188.49 1.36052 188.49 2.77893C188.49 4.16839 187.188 7.78679 186.695 9.23415L184.409 15.7473L180.732 4.28418C180.211 2.60525 179.835 1.24473 182.99 0.810521V0.376314H174.538V0.810521C176.274 1.12894 177.23 1.59209 177.809 3.35787L173.264 15.4578L170.225 5.18154C169.53 2.80788 168.806 1.33157 172.338 0.810521V0.376314H164.146V0.810521C166.548 1.47631 166.635 2.43156 167.359 4.54471L172.077 20.7262H172.367Z" fill="white" fill-opacity="0.63"></path>
  <path d="M216.9 15.5157L202.6 0.376314H197.824V0.810521C201.5 1.62104 201.963 2.74998 201.963 5.6447V9.98678C201.963 16.5578 202.108 19.2209 198.2 19.6262V20.0604H206.855V19.6262C202.658 18.7867 202.831 17.3104 202.831 10.1315V4.80523C207.724 10.0736 212.876 15.1394 217.508 20.6104L217.884 20.5235C217.739 14.2131 217.595 7.23679 218 4.0526C218.231 2.17104 218.608 1.07105 220.605 0.810521V0.376314H212.702V0.810521C215.974 1.38946 216.726 2.19998 216.755 4.94997L216.9 15.5157Z" fill="white" fill-opacity="0.63"></path>
  <path d="M0.193359 34.6234L39.1223 33.2365V35.6321L0.193359 34.6234Z" fill="white" fill-opacity="0.63"></path>
  <path d="M235.763 34.6234L196.834 33.2365V35.6321L235.763 34.6234Z" fill="white" fill-opacity="0.63"></path>
</svg>
