<?xml version="1.0" encoding="UTF-8"?>
<svg xmlns="http://www.w3.org/2000/svg" width="228" height="24" viewBox="0 0 228 24" fill="none">
  <path fill-rule="evenodd" clip-rule="evenodd" d="M37.8938 0.00371047C38.1332 0.0839201 38.2936 0.164133 38.2134 0.483677C38.1332 1.04256 37.2547 0.803216 36.7761 0.962341C35.5781 1.3621 35.9779 2.95853 35.8174 4.07629V19.8866C35.8174 20.5257 35.7372 21.2437 36.2172 21.4831C36.5367 21.963 37.4941 21.6422 38.1332 21.7237C39.0918 21.5646 39.4903 20.5257 40.1294 20.0458C40.3687 19.1686 40.7684 18.4493 40.9276 17.5722C41.4062 15.9758 41.1669 13.8981 41.7258 12.3016C42.0453 12.2227 42.1255 12.4608 42.2045 12.7014V21.5659C42.3649 21.8039 42.1242 22.2024 42.1242 22.443L41.4049 22.6021H32.5431C32.2235 22.5232 31.7449 22.6021 31.5844 22.2839C31.6647 21.4041 33.102 21.8039 33.102 20.7676V9.50855C33.0217 8.07124 33.102 6.23548 33.102 4.87709C33.102 3.5187 33.5017 1.68293 32.5431 0.964927C32.1433 0.565173 30.8664 1.20427 31.0256 0.325843C31.1058 0.166718 31.186 0.086506 31.4253 0.00629646H37.8938V0.00371047ZM69.9906 1.20039C70.3102 1.43972 70.7086 1.20038 70.8677 1.12017C71.1873 0.801924 70.8677 0.0024129 71.5068 0.0826225L71.9066 0.162837V8.54603C71.7462 8.62624 71.9066 9.10491 71.6673 9.10491H71.1873C71.0282 6.07117 70.7875 2.95723 68.5533 1.51993C68.1446 1.26825 67.6761 1.13025 67.1962 1.12017C66.2376 1.20038 65.68 1.91969 65.2802 2.63769C64.7214 3.51612 64.8818 5.19275 65.3605 5.99097C66.5584 7.66761 68.4744 8.62624 69.9117 9.98333C71.349 11.4996 73.0256 13.0973 73.1058 15.6511C73.3452 18.4454 72.3866 20.7625 70.5508 22.2787C69.5119 22.9967 67.9155 23.0769 66.7175 22.5969L65.0409 21.4805C64.6412 21.3213 64.5622 21.7211 64.4018 21.8802C64.4018 22.3602 64.3216 22.6784 64.0021 22.8376L63.4432 22.6784L63.363 18.047V12.8566C63.5234 12.7777 63.9218 12.7777 64.0823 12.8566C64.2414 16.131 64.3216 19.5658 66.7162 21.2398C67.4355 21.7198 68.3127 22.1196 69.3515 21.7987C70.8677 21.1622 71.4266 19.4843 71.4266 17.6472C71.2662 16.0508 70.6284 14.8528 69.5107 13.9757C67.9944 12.1386 65.7589 11.1813 64.3216 9.18383C63.9218 8.70516 63.9218 8.06607 63.6023 7.50719C62.8041 4.87192 63.8416 2.23793 65.3592 0.640208C66.0772 0.161538 67.1949 -0.158006 68.1536 0.0813295C68.8432 0.309396 69.4716 0.69218 69.9906 1.20039ZM6.8359 0.0839155C6.99632 0.164125 7.23566 0.164133 7.31457 0.483677C7.07524 1.04256 6.35594 1.04255 6.1166 1.52122C5.87727 2.00118 5.87727 2.87832 6.03639 3.4372L6.99503 9.10621C7.39478 10.942 7.79324 12.8579 8.27191 14.695H8.51125C9.15034 11.9808 9.62901 9.26533 10.1077 6.55114C9.62901 4.47604 10.0275 1.68035 8.11149 0.723009C7.95107 0.323255 8.1917 0.0839155 8.59016 0.0839155C9.70792 0.164125 13.3005 0.0839208 14.179 0.16413C14.2591 0.369628 14.2591 0.597717 14.179 0.803214C13.5412 1.04255 12.8219 0.96234 12.4234 1.52122C11.545 2.95852 12.7429 4.47604 12.664 6.15268L13.6214 11.1826C13.862 12.2991 13.862 13.6562 14.4998 14.5359H14.58L15.778 9.34554C16.4171 7.18894 16.7353 4.87451 17.2153 2.63899C17.3744 1.92098 17.1351 1.44101 16.6564 1.12147C16.3369 0.803217 15.778 0.88213 15.2993 0.803214C15.2192 0.597717 15.2192 0.369628 15.2993 0.16413C16.4973 0.16413 20.1701 0.0839208 20.6488 0.16413C20.8894 0.24434 20.8092 0.642795 20.729 0.803214C20.011 0.96234 19.2917 1.12147 18.8932 1.60143C18.4145 2.87832 18.1739 4.23671 17.8557 5.5136L16.4986 11.7415C15.7004 15.175 14.8219 18.6874 14.0237 22.1998C13.8646 22.4404 13.4648 22.4404 13.3044 22.28C12.8257 21.6409 12.8257 20.6021 12.5864 19.7249L11.3884 12.8566L10.7494 9.98333H10.5889L9.63159 14.6937C9.14387 17.0344 8.66477 19.3769 8.19429 21.7211C8.11408 22.1985 7.79454 22.5193 7.15545 22.3602C6.59657 22.1985 6.8359 21.4805 6.67678 21.0005L6.27702 18.4454L5.07905 12.1386L4.28084 7.5874C4.0415 5.75163 3.56154 3.91587 3.16308 2.15902C3.08287 1.67906 2.6042 1.36081 2.28465 1.04126C1.72577 0.882137 1.2471 1.12147 0.688225 0.801921C0.5291 0.641502 0.448889 0.162832 0.768434 0.0826225L6.8359 0.0839155ZM25.0396 0.641501C25.3591 2.7981 25.9969 4.71279 26.3165 6.94961L27.9931 15.1737C28.3929 17.0081 28.552 18.8452 29.032 20.5231C29.2713 21.2411 29.75 21.7211 30.5482 21.7987C30.5482 22.0394 30.7875 22.1985 30.6284 22.3602L30.3878 22.5982H25.6774C25.517 22.3602 24.7188 22.5982 24.4005 22.3602C24.1612 21.1622 25.9167 22.1196 26.0772 21.2411C26.4769 20.8414 26.3165 20.0432 26.2376 19.5658C25.8378 18.7676 26.1574 17.4079 25.3591 16.849H22.165L21.8454 17.0081C21.7652 18.4454 20.7277 20.0432 21.6061 21.4805C21.9257 21.7211 22.5647 21.6396 22.8041 21.8802L22.7239 22.3602L18.1726 22.4391C17.694 22.5982 17.7742 21.8802 17.9333 21.7211C18.8919 21.8 19.4508 21.3214 19.9295 20.8414C20.4884 19.5658 20.4884 17.9681 20.8881 16.5308L21.7665 10.942L22.5647 6.31051C22.9645 4.39454 23.2038 2.39835 23.6023 0.402169C23.6825 0.00370876 25.2 -0.235629 25.0396 0.641501ZM50.2694 0.0839155C50.3496 0.243041 50.5087 0.56259 50.3496 0.723009C49.6303 1.04255 48.4336 0.72301 48.2745 1.60143C48.1141 4.07629 48.1141 5.91335 48.1141 8.3882L48.0339 18.1298H47.9537C48.4323 19.3278 47.3146 21.7224 49.0714 21.8013C49.4712 21.8815 50.2694 21.8815 50.6679 21.6422C52.2643 20.3666 52.743 18.2087 53.0638 16.0534C53.3031 14.9369 53.144 13.5798 53.4623 12.4608C53.668 12.3819 53.8956 12.3819 54.1013 12.4608V22.2011L54.0211 22.6008C52.7443 22.6008 51.3872 22.6008 50.4285 22.681L45.8773 22.6008H43.4024C43.0027 22.6008 43.1631 22.0419 43.2433 21.8026C44.0415 21.7237 44.9989 21.8026 45.3986 21.1661C45.7182 19.9681 45.4788 18.3717 45.6379 17.0935C45.4775 15.9771 45.7182 14.7791 45.5577 13.5009L45.6379 12.4621V2.24311C45.5577 1.84336 45.3184 1.36468 45.0791 1.12535C44.6004 0.566467 42.6844 1.36598 43.4024 0.0878043H50.2694V0.0839155ZM84.0415 0.162837L84.2006 0.562589V9.744C84.1204 9.98334 83.9613 10.0635 83.8009 10.1438L83.4011 9.98333C83.4813 7.10872 83.0816 4.55495 82.2834 2.23923C82.123 1.76056 81.7245 1.3608 81.2458 1.12147C80.8461 1.12147 80.4476 1.12147 80.2872 1.44101V18.4467H80.2096C80.2898 19.6447 80.0505 21.1635 80.9289 21.7211C81.4878 22.1209 82.4464 21.4805 82.5253 22.3602C82.5253 22.9967 81.6469 22.5193 81.2484 22.7574H79.4929V22.6784C78.9327 22.9191 78.3751 22.5193 77.8951 22.7574C77.4165 22.6784 76.3789 22.6784 75.6596 22.6784C75.4203 22.5982 75.5005 22.1196 75.5794 21.9604C76.4578 21.7987 77.4152 21.7198 77.7347 20.7625V1.60014C77.5756 1.20039 77.335 1.12018 77.0167 1.04126C75.8187 1.36081 75.5005 2.63769 75.1809 3.83566C74.7812 5.59251 74.4629 7.34807 74.6221 9.50467C74.4629 9.744 74.6221 10.1438 74.2223 10.1438L73.7436 9.98333V0.321964C74.7799 0.0037133 81.5667 0.0839215 84.0415 0.162837ZM93.5425 0.162837C94.8996 0.562592 96.0173 1.43973 96.6564 2.63769C97.2153 4.39454 97.5349 7.26915 96.4158 8.78537C95.8569 9.58358 95.2178 10.3029 94.3407 10.8618C94.1803 11.4219 94.7404 11.4219 95.0587 11.8993C96.1765 12.6975 96.3369 14.5346 96.3369 15.9719C96.3369 15.8102 96.1765 15.6511 96.0975 15.8102C96.0173 16.0508 96.1778 16.2125 96.4171 16.2125C96.4973 17.5696 96.258 19.0858 96.5775 20.2825C96.6118 20.3956 96.6734 20.4986 96.7569 20.5823C96.8404 20.666 96.9431 20.7279 97.0562 20.7625C97.4559 20.6823 97.5361 20.2825 97.6953 20.0419C97.6151 19.3239 97.7755 18.5257 97.8557 17.8051C98.095 17.9668 98.3356 17.4868 98.4948 17.8051C98.6552 19.6421 98.575 21.5594 97.377 22.4365C96.897 22.7548 96.4184 22.9165 95.7004 22.8363C94.9649 22.6217 94.3377 22.1369 93.9448 21.4792L93.7055 19.963V14.215C93.4661 13.096 93.2255 11.898 92.1091 11.5798C91.6291 11.4206 90.8309 11.2589 90.4324 11.5798L90.272 11.898V20.7625C90.4324 21.2398 90.5915 21.6396 90.9913 21.7987C91.3898 21.8789 91.9486 21.7987 91.8697 22.4378L91.7093 22.6784L87.5578 22.7574C87.3974 22.7574 87.1581 22.5982 87.0778 22.7574C86.6781 22.4391 85.3223 23.1597 85.6418 22.1985C85.6418 21.6396 86.3598 22.0394 86.6794 21.7987C87.0791 21.7198 87.3185 21.3214 87.5578 21.0807C87.5578 20.681 87.7971 20.201 87.638 19.8025L87.7182 15.1737C87.7182 13.2564 87.638 11.4219 87.7182 9.744C87.7182 8.54603 87.7182 6.86939 87.638 5.59251C87.7182 4.793 87.638 3.59632 87.7182 2.7981C87.5591 2.0801 87.3987 1.3608 86.7609 1.12147C86.3611 0.962342 85.6431 1.20167 85.4827 0.803214C85.4025 0.483669 85.4827 0.243046 85.8023 0.16413L93.5425 0.162837ZM110.389 0.162837C110.948 0.402172 110.628 1.51993 110.709 2.07881C110.949 3.35569 110.55 4.793 110.789 5.91076C110.55 6.39073 110.869 6.70898 110.789 7.18765C110.63 7.74653 110.789 8.54474 110.63 9.02341C109.512 9.10362 110.071 7.66631 109.91 6.9483C109.671 4.47345 108.793 2.23664 106.718 1.19909C105.998 0.959752 104.802 0.959754 104.322 1.51863C103.842 2.95594 104.082 5.35058 104.082 6.70897C103.922 7.18764 104.162 7.34806 104.082 7.90694V10.1425C104.162 10.3818 104.002 11.0209 104.561 10.9407C106.477 10.0623 106.718 7.82673 106.718 5.59121C106.718 5.27167 106.878 5.11125 107.357 5.19146L107.437 5.67013C107.278 6.70768 107.597 7.98585 107.357 9.10361C107.357 10.2214 107.357 11.7389 107.437 12.9356C107.357 14.3182 107.357 15.7044 107.437 17.0871C107.437 17.4053 107.278 17.567 106.958 17.567C106.399 17.0871 106.798 15.73 106.558 15.012C106.239 13.6523 105.919 12.0558 104.403 11.7376L104.162 11.8967C104.002 13.6523 104.082 14.9318 104.082 16.5282C104.082 17.9655 104.162 19.8 104.082 21.2386C104.561 22.1959 105.759 21.7974 106.877 21.7974C108.872 20.9203 109.591 18.5257 109.991 16.2888L110.949 16.5295V22.4365L110.709 22.6772L101.447 22.7561C100.808 22.5969 99.6902 22.8363 99.0511 22.5969C98.8117 21.3213 100.328 22.1972 100.808 21.7198C101.127 21.5607 101.287 21.2398 101.447 20.9216V2.08011C101.287 1.68035 101.047 1.28189 100.728 1.12147C100.169 0.882133 98.9709 1.3621 99.0511 0.403462L99.2115 0.16413L110.389 0.162837ZM121.966 0.162837C122.366 0.402172 123.483 0.00242035 123.722 0.482384C123.722 3.43591 123.801 5.99097 123.722 8.86557C123.642 9.10491 123.242 9.10491 123.083 8.94579C122.765 5.83185 122.842 2.15902 119.97 1.04126C119.331 0.801928 118.611 1.12147 117.974 1.12147C117.574 1.52122 117.253 1.84077 117.253 2.47986V10.224C117.334 10.4633 117.415 10.6237 117.653 10.6237C119.809 10.0648 119.649 7.42956 119.97 5.27425C120.049 5.11383 120.448 5.11383 120.607 5.27425V8.54732C120.768 8.70774 120.607 8.70774 120.607 9.02599C120.768 9.74529 120.607 10.3042 120.687 11.1826V13.3379C120.446 14.5359 120.767 16.0521 120.446 17.1711C120.287 17.3303 119.969 17.2501 119.887 17.0094C119.728 15.175 119.728 12.779 118.291 11.66C118.132 11.5009 117.652 11.5009 117.414 11.66L117.252 12.2214V17.4092H117.332C117.413 18.6874 116.852 20.7651 117.812 21.5633C118.449 21.8815 119.329 21.963 120.127 21.8013C121.882 21.2424 122.364 19.4054 123 17.8089C122.841 17.1724 123.241 16.5334 123.241 15.8128L123.4 13.2577C123.562 13.0986 123.721 13.0197 123.961 13.1788L124.12 13.3379C123.88 14.5359 124.598 16.4506 123.481 16.9305C123.401 17.2488 123.001 17.2488 123.001 17.6485C123.322 17.3303 123.722 17.0094 124.04 16.5321H124.199L124.12 21.1635C123.961 21.7224 124.361 22.5982 123.721 22.7574C122.364 22.9191 121.085 22.8376 119.728 22.8376C117.173 22.6784 114.777 22.7574 112.302 22.7574C112.063 22.6784 112.063 22.1985 112.222 22.0394C112.942 21.7987 113.899 21.9604 114.378 21.2411C115.096 20.6823 114.697 19.0858 114.777 18.047C114.858 16.2914 114.618 13.977 114.777 12.3793L114.697 7.82802V2.15902C114.456 1.51993 113.978 0.961048 113.18 0.961048C112.701 0.961048 112.142 1.04126 112.301 0.402169C112.385 0.0839183 120.688 0.162837 121.966 0.162837ZM162.606 2.47857C163.644 3.91587 163.963 5.99097 164.443 7.98715C165.001 12.1386 164.602 16.9305 163.005 19.9643C162.415 21.0835 161.532 22.0216 160.45 22.6784C159.493 22.9191 158.054 22.9967 157.415 22.3602C154.38 19.5658 153.663 15.1737 153.744 10.0635C153.903 6.63006 154.942 3.35699 156.938 1.04126C157.736 0.162838 159.252 -0.0764963 160.528 0.321964C161.326 0.882138 162.124 1.60014 162.606 2.47857ZM135.937 0.402169L136.096 0.641501L136.176 6.78919C135.936 7.82803 136.176 9.10491 136.017 10.1425C135.777 10.3818 135.537 10.1425 135.378 10.0623L135.138 6.15009C134.819 4.31304 134.501 2.63639 133.462 1.35951C133.222 1.11888 132.664 1.11888 132.505 1.35951L132.184 1.67905V21.0807C132.343 22.1972 133.94 21.5607 134.58 22.0381C134.66 22.4378 134.501 22.6771 134.18 22.7561C132.105 22.9967 130.029 22.5969 127.952 22.7561C127.475 22.8363 127.475 22.2787 127.634 22.0381C128.355 21.8789 129.231 21.9591 129.471 21.2398L129.55 12.2978V1.75927C129.391 1.51864 129.232 1.2806 128.914 1.20039C127.476 1.36081 127.395 2.79681 126.996 3.83566L126.36 8.14757C126.198 8.86687 126.519 9.82421 126.119 10.2227L125.639 10.1425L125.56 5.67142C125.56 4.07499 125.48 2.07881 125.639 0.482384C126.197 0.0839236 134.58 0.32196 135.937 0.402169ZM153.182 0.321964C153.582 0.241755 153.662 0.641507 153.503 0.882136C152.705 1.04126 151.907 1.04126 151.427 1.60014C150.868 2.87703 151.507 4.55496 151.268 5.91205C151.348 6.15268 151.187 6.63135 151.268 7.02981C151.348 8.06736 151.268 9.26533 151.268 10.2227V19.166C150.79 20.7625 150.07 22.3602 148.473 22.7561C146.877 23.1584 145.838 22.4378 145.12 21.6396C144.24 20.364 143.283 18.6861 144.003 16.7701C144.322 16.0495 144.88 15.651 145.679 15.5721C146.078 15.7313 146.558 15.8904 146.718 16.2901C146.637 17.0081 147.117 17.8064 146.637 18.2863C146.558 18.9254 145.68 18.9254 145.68 19.6434C145.76 20.6008 146.16 21.399 146.958 21.7198C147.676 21.8789 148.075 21.5607 148.474 21.1609C149.033 19.5645 148.715 17.0069 148.715 15.2513L148.795 10.6211V2.39706C148.634 1.91839 148.474 1.51864 148.075 1.11888C147.597 0.720421 146.478 1.2793 146.238 0.640208L146.478 0.161544C148.953 0.162838 150.709 0.402174 153.182 0.321964ZM170.668 0.402169C170.989 0.24175 171.628 0.162835 171.866 0.562589C171.946 1.04126 171.628 1.12147 171.307 1.20168C170.83 1.20168 170.509 1.44101 170.19 1.68035C169.87 2.23923 169.87 3.03744 169.87 3.83695V12.9394L169.791 13.0197C169.95 15.4156 169.791 17.0094 169.95 19.4856C170.191 20.4429 170.748 21.3226 171.628 21.8C172.346 21.9617 173.303 21.8802 173.783 21.3226C174.581 20.7638 174.74 19.8853 174.9 19.0056V11.0222L174.819 10.5435L174.9 3.51741C174.98 2.79941 174.819 2.00119 174.422 1.44231C174.02 1.12276 173.303 1.12277 172.823 1.04256L172.903 0.483677L177.135 0.403462C177.376 0.403462 177.535 0.642795 177.535 0.803214C177.535 1.20167 176.896 0.962342 176.737 1.12147C176.337 1.20168 175.938 1.52123 175.938 1.92098L175.698 3.19787V19.1673C175.539 20.5244 174.74 21.6409 173.783 22.4391C173.144 22.998 171.866 22.7574 171.148 22.9191C169.551 22.5982 168.194 21.4818 167.714 19.9655C166.757 17.9694 167.396 14.695 167.155 12.5397V2.24052C166.996 1.76185 166.756 1.44231 166.357 1.20298C165.958 1.04256 165.241 1.20297 165.241 0.724302C165.161 0.244338 165.718 0.484969 165.959 0.32455L170.668 0.402169ZM183.523 0.482384C185.919 0.16284 188.314 0.641505 189.271 2.55748C190.07 3.83436 190.547 5.83055 189.989 7.5874C189.271 8.86558 188.714 10.462 187.275 11.0998C187.275 11.8191 188.073 11.9795 188.392 12.5371C188.712 13.1762 189.031 13.7351 189.031 14.6122L189.19 18.6848C189.19 19.4028 189.11 20.5995 189.829 20.9216C190.786 20.6008 190.547 19.166 190.709 18.1272C190.788 18.047 191.106 18.047 191.186 18.1272C191.427 19.8828 191.027 21.5607 189.988 22.5969C189.429 22.8376 188.712 23.1584 188.073 22.9178C187.353 22.9178 187.353 22.1196 186.875 21.7198L186.635 19.4028V14.7739C186.555 13.7351 186.476 12.5371 185.677 11.9795C185.119 11.4996 184.081 11.3404 183.281 11.6587L183.122 11.8993C182.802 15.0145 183.201 17.5696 183.122 20.8414C183.201 21.3214 183.281 21.8802 183.84 22.1196C184.32 22.1985 184.558 22.1196 185.119 22.2787C185.197 22.4378 185.119 22.6784 185.197 22.9178L180.966 22.9967L178.651 22.8376C178.492 22.6784 178.492 22.2787 178.651 22.1985C179.372 22.1985 179.93 21.9604 180.329 21.562L180.57 20.7638V2.39835C180.408 1.91968 180.329 1.43972 179.849 1.20039C179.45 1.03997 178.733 1.2806 178.733 0.721716C178.973 0.162836 179.451 0.641504 180.008 0.402169C181.206 0.482379 182.165 0.482384 183.523 0.482384ZM195.259 0.402169C195.42 0.562588 195.739 0.641507 195.82 0.882136C197.416 5.35317 198.614 9.98333 200.449 14.2952C200.929 14.2163 200.29 13.7364 200.611 13.497C200.53 11.8204 200.69 10.224 200.53 8.46712C200.69 7.50978 200.53 6.79048 200.611 5.75293C200.37 5.59251 200.77 5.35317 200.53 5.27296C200.69 4.31433 200.45 2.95723 200.45 1.83947C200.05 1.28059 199.334 1.12017 198.536 1.12017C198.536 1.03997 198.376 0.5613 198.695 0.482384H203.326C203.644 0.562594 203.485 0.882134 203.485 1.12017C203.008 1.3608 202.287 1.2806 201.969 1.75927L201.648 2.55748L201.569 6.86939V20.5231C201.489 21.1622 201.648 22.1985 201.489 22.8376C201.33 22.9967 200.93 23.0782 200.771 22.9178C200.212 22.1972 200.291 21.0005 199.732 20.2825C198.855 18.1272 198.375 15.651 197.495 13.5759L195.899 9.02341C195.661 8.22519 195.26 7.5861 195.022 6.8681L194.863 6.9483C194.622 7.90564 194.622 8.70387 194.783 9.6625L194.702 13.9744V21.0794C194.864 21.4792 195.023 21.8776 195.423 22.1183C195.823 22.3589 196.78 21.8776 196.78 22.5956L196.7 22.9165L192.23 22.9954C191.909 22.9165 191.509 22.9165 191.509 22.518C191.83 21.8789 193.187 22.518 193.506 21.7198C193.826 21.0807 193.826 20.201 193.826 19.3239L193.746 10.1412V2.47727C193.587 1.35951 192.471 1.2793 191.591 1.03997C191.35 0.880844 191.591 0.640217 191.591 0.481091C192.785 0.321966 193.982 0.402169 195.259 0.402169ZM210.828 4.47475C211.149 6.71027 211.867 8.70645 212.106 11.0209L213.541 17.6472C214.021 19.2437 213.941 21.3214 215.458 22.1196C215.858 22.1985 216.336 22.1985 216.098 22.8376L216.017 22.9967C214.18 23.0769 211.707 23.1584 209.789 22.9178C209.39 21.7987 210.749 22.2787 211.227 21.9604C211.627 21.6396 211.707 21.0005 211.627 20.2825C211.386 19.166 211.227 17.9681 210.749 17.0884C209.471 17.0081 207.955 17.0081 206.836 17.1686C206.518 17.5683 206.436 18.2048 206.359 18.8439C206.197 19.8012 205.56 21.2398 206.518 22.0381C206.917 22.4378 208.514 21.7198 207.955 22.9178C206.677 23.1584 205.161 23.0769 203.882 23.0769C203.483 22.9178 202.607 23.236 202.844 22.4378C202.844 21.9604 203.642 22.2787 203.882 22.1196C204.6 21.7198 204.921 21.0005 205.08 20.2825L206.038 14.8528L207.236 7.98715L207.956 3.99608C208.194 2.79811 208.356 1.44102 208.914 0.483677L209.952 0.563882L210.828 4.47475ZM222.965 0.482384C223.283 0.562594 223.604 0.641509 223.604 1.04126C223.445 1.60014 222.406 1.28189 222.007 1.60014C221.448 1.83948 221.448 2.55878 221.289 3.03745V20.8414C221.049 21.4003 221.448 21.7987 221.767 22.1196C222.406 22.5193 223.843 22.4378 224.642 22.1985C225.918 21.4003 226.159 19.8025 226.718 18.3678L227.276 14.2163C227.357 14.0546 227.676 14.0546 227.916 14.2163V21.6396H227.835C227.835 22.0394 227.916 22.6784 227.756 23.0769C227.357 23.236 226.718 23.0769 226.399 23.1571L226.159 23.0769L221.848 23.1571C220.17 23.0769 218.333 23.3162 216.976 22.9165C216.817 22.8363 216.817 22.5167 216.897 22.3576C217.374 22.0368 218.413 22.4365 218.653 21.7185L218.732 20.9203V2.08011C218.332 1.28189 217.456 1.20168 216.656 1.20168C216.656 0.882138 216.497 0.562593 216.816 0.483677L222.965 0.482384Z" fill="white" fill-opacity="0.63"></path>
  <path fill-rule="evenodd" clip-rule="evenodd" d="M161.167 2.55878L161.326 4.07501V9.10491L161.406 9.18513L161.326 19.5658C161.167 20.364 160.767 20.9229 160.369 21.562C159.81 22.0394 158.853 21.9617 158.294 21.6409C157.096 20.8427 156.856 19.3265 156.937 17.9694C156.856 16.8503 157.255 15.893 156.937 14.8541C157.015 13.6562 156.937 12.2991 157.096 11.0222C156.937 10.942 157.096 10.4633 156.937 10.3831C157.255 9.98335 156.856 9.74401 156.937 9.34555C157.015 7.34937 156.937 5.83315 156.937 3.51742C157.255 2.47987 157.735 1.2819 158.851 1.04256C160.051 0.96106 160.69 1.68036 161.167 2.55878ZM92.9047 1.2004C95.1402 2.55749 94.2618 5.99097 94.1816 8.54604C94.0212 9.26404 93.6227 9.82292 93.0639 10.3029C92.4248 10.7026 91.0677 10.6224 90.4286 10.3831L90.3484 2.23923C90.4286 1.68035 90.6679 1.12148 91.3859 1.12148C91.8659 0.961056 92.3446 1.2004 92.9047 1.2004ZM187.036 2.47857C187.276 3.03745 187.276 3.83566 187.354 4.39454L187.275 8.62625C187.035 9.42447 186.795 10.1425 186.077 10.462C185.438 10.7026 184.001 10.7026 183.201 10.462C183.122 7.42828 183.122 5.11256 183.122 2.08012C183.201 1.68036 183.522 1.28189 184 1.12148C185.52 0.801931 186.319 1.60015 187.036 2.47857ZM208.832 7.18895C209.312 10.2227 210.269 12.9382 210.669 16.0508L210.51 16.2125L207.316 16.2914L206.916 16.0508C206.995 15.1737 207.157 14.2163 207.394 13.2564L208.033 9.02471C208.192 8.38562 208.273 7.66761 208.513 7.10873L208.832 7.18895ZM24.561 11.4219L25.3592 15.7326C24.8003 16.3716 23.6826 15.7326 22.8041 15.9732L22.165 15.893L22.2452 14.8541L22.9645 10.3042L23.5234 7.34937L23.6838 7.42957L24.561 11.4219Z" fill="#111111"></path>
</svg>
