<?xml version="1.0" encoding="UTF-8"?>
<svg xmlns="http://www.w3.org/2000/svg" width="31" height="25" viewBox="0 0 31 25" fill="none">
  <g clip-path="url(#clip0_305_54)">
    <path d="M27.1184 5.84235C27.137 6.09326 27.137 6.34422 27.137 6.59513C27.137 14.2481 21.1051 23.0662 10.0806 23.0662C6.68417 23.0662 3.52905 22.1162 0.875 20.4674C1.35757 20.5211 1.82152 20.5391 2.32265 20.5391C5.12512 20.5391 7.70496 19.625 9.76509 18.0657C7.12961 18.012 4.921 16.3451 4.16004 14.051C4.53126 14.1047 4.90243 14.1406 5.29222 14.1406C5.83044 14.1406 6.36871 14.0689 6.86979 13.9435C4.12296 13.4058 2.06277 11.0758 2.06277 8.26194V8.19027C2.86081 8.62042 3.78887 8.88926 4.77246 8.92507C3.15777 7.88552 2.09991 6.11119 2.09991 4.10382C2.09991 3.02847 2.39681 2.04272 2.91651 1.18242C5.86751 4.69528 10.3033 6.98936 15.2773 7.24032C15.1845 6.81017 15.1288 6.36215 15.1288 5.91407C15.1288 2.72378 17.8014 0.125 21.1236 0.125C22.8496 0.125 24.4086 0.823987 25.5037 1.95312C26.8585 1.70222 28.1576 1.21828 29.3084 0.55515C28.8629 1.89939 27.9164 3.02853 26.6729 3.74539C27.8793 3.61999 29.0486 3.29731 30.125 2.84928C29.3085 3.9963 28.2877 5.01785 27.1184 5.84235V5.84235Z" fill="white"></path>
  </g>
  <defs>
    <clipPath id="clip0_305_54">
      <rect width="29.25" height="24.375" fill="white" transform="translate(0.875 0.125)"></rect>
    </clipPath>
  </defs>
</svg>
