<?xml version="1.0" encoding="UTF-8"?>
<svg xmlns="http://www.w3.org/2000/svg" width="31" height="33" viewBox="0 0 31 33" fill="none">
  <g clip-path="url(#clip0_161_3152)">
    <path d="M15.5065 9.20032C11.3541 9.20032 8.0047 12.4567 8.0047 16.4938C8.0047 20.5309 11.3541 23.7872 15.5065 23.7872C19.659 23.7872 23.0084 20.5309 23.0084 16.4938C23.0084 12.4567 19.659 9.20032 15.5065 9.20032ZM15.5065 21.2355C12.8231 21.2355 10.6294 19.109 10.6294 16.4938C10.6294 13.8785 12.8166 11.7521 15.5065 11.7521C18.1965 11.7521 20.3837 13.8785 20.3837 16.4938C20.3837 19.109 18.19 21.2355 15.5065 21.2355ZM25.065 8.90198C25.065 9.84778 24.2815 10.6031 23.3153 10.6031C22.3424 10.6031 21.5655 9.84143 21.5655 8.90198C21.5655 7.96252 22.349 7.2008 23.3153 7.2008C24.2815 7.2008 25.065 7.96252 25.065 8.90198ZM30.0336 10.6285C29.9226 8.34973 29.3872 6.33118 27.6701 4.66809C25.9595 3.005 23.8833 2.4845 21.5394 2.37024C19.1236 2.23694 11.8829 2.23694 9.4672 2.37024C7.12981 2.47815 5.05359 2.99866 3.33645 4.66174C1.61932 6.32483 1.09047 8.34338 0.972949 10.6222C0.83584 12.9708 0.83584 20.0104 0.972949 22.359C1.08394 24.6378 1.61932 26.6564 3.33645 28.3195C5.05359 29.9825 7.12329 30.503 9.4672 30.6173C11.8829 30.7506 19.1236 30.7506 21.5394 30.6173C23.8833 30.5094 25.9595 29.9889 27.6701 28.3195C29.3807 26.6564 29.9161 24.6378 30.0336 22.359C30.1707 20.0104 30.1707 12.9772 30.0336 10.6285ZM26.9127 24.879C26.4035 26.1232 25.4176 27.0817 24.1314 27.5831C22.2053 28.3258 17.635 28.1544 15.5065 28.1544C13.3781 28.1544 8.80124 28.3195 6.88171 27.5831C5.60202 27.088 4.61614 26.1295 4.10035 24.879C3.33645 23.0065 3.51274 18.5631 3.51274 16.4938C3.51274 14.4244 3.34298 9.97473 4.10035 8.10852C4.60961 6.86438 5.59549 5.90588 6.88171 5.40442C8.80777 4.66174 13.3781 4.83313 15.5065 4.83313C17.635 4.83313 22.2118 4.66809 24.1314 5.40442C25.4111 5.89954 26.3969 6.85803 26.9127 8.10852C27.6766 9.98108 27.5004 14.4244 27.5004 16.4938C27.5004 18.5631 27.6766 23.0128 26.9127 24.879Z" fill="white"></path>
  </g>
  <defs>
    <clipPath id="clip0_161_3152">
      <rect width="29.25" height="32.5" fill="white" transform="translate(0.875 0.25)"></rect>
    </clipPath>
  </defs>
</svg>
