<svg width="114" height="31" viewBox="0 0 114 31" fill="none" xmlns="http://www.w3.org/2000/svg">
<path d="M113.298 26.5576C113.298 24.8347 112.053 23.5731 110.337 23.5731C108.624 23.5731 107.377 24.8347 107.377 26.5576C107.377 28.2777 108.624 29.5372 110.337 29.5372C112.053 29.5372 113.298 28.2756 113.298 26.5576ZM109.559 26.7107V28.66H108.917V24.3615H110.512C111.447 24.3615 111.876 24.762 111.876 25.5427C111.876 26.0236 111.545 26.4045 111.118 26.4598V26.4779C111.489 26.5359 111.625 26.8603 111.701 27.4537C111.759 27.8381 111.837 28.5049 111.977 28.6614H111.217C111.04 28.2574 111.058 27.6857 110.922 27.2069C110.81 26.8428 110.611 26.71 110.186 26.71H109.563V26.7121L109.559 26.7107ZM110.355 26.155C110.978 26.155 111.156 25.8293 111.156 25.542C111.156 25.2024 110.978 24.934 110.355 24.934H109.559V26.1564H110.355V26.155ZM106.671 26.5576C106.671 24.4349 108.389 23 110.334 23C112.285 23 114.001 24.4349 114.001 26.5576C114.001 28.6761 112.286 30.1124 110.334 30.1124C108.389 30.1124 106.671 28.6761 106.671 26.5576Z" fill="#E4E4E4" fill-opacity="0.63"/>
<path d="M93.9769 29.8958L89.754 25.2499L85.5682 29.8958H76.7604L85.3687 20.4084L76.7604 10.9182H85.8432L90.1089 15.5284L94.2135 10.9182H102.979L94.413 20.3685L103.097 29.8958H93.9769ZM59.8474 29.8958V0H76.7604V6.6637H67.0115V10.9182H76.7604V17.3302H67.0115V23.2153H76.7604V29.8958H59.8474Z" fill="#E4E4E4" fill-opacity="0.63"/>
<path d="M52.7098 0V12.235H52.6307C51.0511 10.4541 49.0768 9.8334 46.7876 9.8334C42.0966 9.8334 38.5626 12.964 37.3222 17.0996C35.9072 12.5418 32.2585 9.74813 26.8493 9.74813C22.4554 9.74813 18.9871 11.6821 17.1752 14.8343V10.9175H8.09456V6.6644H18.0053V0.00139978H0V29.8958H8.09456V17.3302H16.1628C15.9142 18.2965 15.79 19.2895 15.793 20.2861C15.793 26.5192 20.6486 30.8995 26.8479 30.8995C32.0591 30.8995 35.4961 28.4972 37.3122 24.1239H30.3747C29.4371 25.44 28.7246 25.8287 26.8486 25.8287C24.6741 25.8287 22.7974 23.9667 22.7974 21.7622H36.9232C37.5359 26.7142 41.4689 30.984 46.8667 30.984C49.1951 30.984 51.3268 29.8608 52.63 27.9632H52.7083V29.9H59.8453V0.00139978H52.7098V0ZM23.0226 17.4197C23.4736 15.52 24.9748 14.2787 26.8486 14.2787C28.912 14.2787 30.337 15.4815 30.711 17.4197H23.0226ZM48.3786 25.3464C45.7488 25.3464 44.1143 22.9427 44.1143 20.4321C44.1143 17.7482 45.5364 15.1698 48.3786 15.1698C51.3275 15.1698 52.5024 17.7496 52.5024 20.4321C52.5024 22.9749 51.2584 25.3464 48.3786 25.3464Z" fill="white" fill-opacity="0.63"/>
</svg>
