<svg width="165" height="35" viewBox="0 0 165 35" fill="none" xmlns="http://www.w3.org/2000/svg">
<path d="M23.1478 0C10.4196 0 0.000732422 7.67837 0.000732422 17.1146C0.000732422 26.5468 10.4237 34.7766 23.1478 34.7766C35.9838 34.7766 46.4068 26.5468 46.4068 17.1146C46.4068 7.67837 35.9838 0 23.1478 0ZM23.1478 1.20648C34.2259 1.20648 43.2227 8.33758 43.2227 17.1146C43.2227 25.8876 34.2259 33.5659 23.1478 33.5659C12.0697 33.5659 3.07291 25.8876 3.07291 17.1146C3.07291 8.33758 12.0697 1.20648 23.1478 1.20648ZM64.1723 6.91551L49.8023 28.9597H54.7402L58.3597 23.2549H66.5853V28.9597H71.1956V6.91551H64.1723ZM66.5853 10.6428V19.4157H60.8846C61.3241 18.8684 66.5853 10.6428 66.5853 10.6428ZM162.681 25.3403C162.433 25.3291 162.185 25.3697 161.954 25.4595C161.723 25.5493 161.512 25.6863 161.337 25.8618C161.161 26.0374 161.024 26.2475 160.935 26.479C160.845 26.7104 160.804 26.958 160.815 27.206C160.815 28.1927 161.586 28.9597 162.681 28.9597C163.78 28.9597 164.547 28.1927 164.547 27.206C164.559 26.9578 164.518 26.71 164.429 26.4782C164.339 26.2465 164.202 26.0361 164.027 25.8604C163.851 25.6848 163.64 25.5477 163.409 25.4582C163.177 25.3686 162.929 25.3284 162.681 25.3403ZM162.681 25.56C163.56 25.56 164.327 26.1114 164.327 27.206C164.327 28.1927 163.56 28.74 162.681 28.74C161.806 28.74 161.147 28.1927 161.147 27.206C161.147 26.1114 161.806 25.56 162.681 25.56Z" fill="white" fill-opacity="0.63"/>
<path d="M162.022 26.1116V28.0851H162.354V27.3139H162.569L163.233 28.0809H163.56L163.009 27.202C163.228 27.202 163.448 26.9822 163.448 26.6547C163.448 26.323 163.121 26.1074 162.681 26.1074L162.022 26.1116ZM162.354 26.4391H162.685C162.901 26.4391 163.009 26.5469 163.009 26.6588C163.009 26.8786 162.901 26.9864 162.681 26.9864H162.35L162.354 26.4391Z" fill="white" fill-opacity="0.63"/>
<path d="M82.2739 28.9598H86.88V6.91553H82.2739V28.9598ZM74.156 28.9598H78.8741V6.91553H74.156V28.9598Z" fill="white" fill-opacity="0.63"/>
<path d="M150.177 11.8492C148.091 11.8492 146.337 12.5085 145.019 13.7149C143.373 15.249 142.606 17.5541 142.606 20.4024C142.606 25.6678 145.678 28.9597 150.832 28.9597C153.16 28.9816 155.445 28.334 157.415 27.094L157.523 26.9862L156.976 23.5865L156.756 23.6943C154.783 25.0128 153.137 25.56 151.271 25.56C148.858 25.56 147.324 24.026 147.104 21.3933H157.523L157.635 20.2946C157.635 14.6975 155.11 11.8492 150.284 11.8492H150.177ZM150.177 14.9173C152.478 14.9173 153.137 16.8949 153.137 18.6487H147.104C147.324 16.2357 148.427 14.9173 150.177 14.9173Z" fill="white" fill-opacity="0.63"/>
<path d="M133.502 6.91553V12.1809H131.197V15.6884H133.502V24.0219C133.502 27.3138 135.255 28.9598 139.099 28.9598C140.301 28.9598 141.072 28.74 141.727 28.6281H141.947L141.292 25.0128H141.072C140.741 25.1206 140.409 25.1206 139.866 25.1206C138.547 25.1206 137.888 24.5733 137.888 23.3668V15.6884H141.18L141.292 12.1768H137.892V6.91553H133.502Z" fill="white" fill-opacity="0.63"/>
<path d="M123.19 11.8492C120.45 11.8492 118.257 12.5085 116.611 13.0516L116.499 13.1635L117.046 16.6752L117.266 16.5632C119.243 15.6884 120.997 15.249 122.639 15.249C124.397 15.249 125.276 16.016 125.276 17.4463V17.8817C118.584 18.5409 115.4 20.6263 115.4 24.4655C115.4 27.206 117.266 28.9597 120.23 28.9597C122.312 28.9597 123.962 28.3047 125.603 26.8785L125.935 28.6322H129.774V17.3344C129.774 13.603 127.689 11.8492 123.19 11.8492ZM125.276 20.5144V24.1338C124.177 25.1206 122.971 25.6678 121.656 25.6678C120.558 25.6678 119.899 25.0128 119.899 24.026C119.899 22.1603 121.764 20.9538 125.276 20.5144Z" fill="white" fill-opacity="0.63"/>
<path d="M105.748 6.91553V12.1809H103.443V15.6884H105.748V24.0219C105.748 27.3138 107.614 28.9598 111.345 28.9598C112.548 28.9598 113.319 28.852 113.974 28.6281H114.194L113.646 25.0128H113.427C113.095 25.1206 112.66 25.1206 112.112 25.1206C110.794 25.1206 110.135 24.5733 110.135 23.3668V15.6884H113.534V12.1768H110.135V6.91553H105.748ZM90.831 13.4952C90.3986 13.9243 90.0586 14.4374 89.8318 15.0028C89.6051 15.5682 89.4965 16.174 89.5126 16.783C89.6245 20.0749 91.2705 21.0616 95.3294 22.0484C97.9621 22.5998 98.5094 23.0393 98.5094 24.2458C98.5094 25.2325 97.8502 25.672 95.9845 25.672C94.1188 25.672 91.9256 25.0086 90.1718 23.9141L89.8401 23.6943L89.1851 27.3138L89.4048 27.4257C90.831 28.1927 93.244 28.9598 95.8725 28.9598C98.4016 28.9598 100.267 28.4125 101.362 27.3179C102.237 26.439 102.676 25.2325 102.676 23.8063C102.676 20.2946 100.703 19.4198 96.6437 18.4289C94.1188 17.7739 93.6835 17.4422 93.6835 16.4554C93.7913 15.6884 94.5583 15.1412 95.7647 15.1412C97.2988 15.1412 99.2764 15.6884 100.922 16.5674L101.142 16.6752L101.801 13.0557L101.582 12.9438C99.7296 12.2132 97.7556 11.8417 95.7647 11.8493C93.6835 11.8493 91.9256 12.5085 90.831 13.4952Z" fill="white" fill-opacity="0.63"/>
<path d="M7.903 7.02344L6.91211 8.01018C7.02405 8.01018 7.24379 8.22992 7.24379 8.22992C7.35158 8.22992 8.7778 9.32446 8.99754 9.5442C8.8856 9.65199 8.33833 11.1902 8.33833 11.1902C7.79106 12.5044 7.23964 13.8229 7.23964 14.8096V15.0293L7.67912 17.3345V17.4423C8.0108 18.7607 8.22639 20.075 8.44612 21.0618C8.44612 21.3934 8.44613 21.5012 8.67001 21.609C9.32507 22.2724 10.4238 23.6945 11.85 26.4391C11.85 26.5469 11.9578 26.5469 11.9578 26.6588C12.0697 26.9905 12.2895 27.2061 12.3973 27.3181C12.5602 27.4259 12.7512 27.4834 12.9466 27.4834C13.142 27.4834 13.333 27.4259 13.4959 27.3181C14.1712 26.8983 14.7055 26.2861 15.03 25.5602C15.1378 25.6721 15.4694 25.9996 15.4694 26.1116C14.2629 28.0851 16.3442 28.8479 17.1154 28.5204C16.6759 29.7269 18.3177 30.7178 19.7481 30.0585C19.9678 30.8256 20.627 31.0453 21.2821 31.1572C21.8335 31.265 22.7083 31.3728 24.0268 31.265C26.108 31.0453 27.9737 30.498 28.7407 30.0585C30.2748 29.2915 31.1579 28.3048 31.5932 27.6456L31.8129 27.4258C31.9249 27.7575 32.1446 27.9731 32.3602 28.1929C32.7066 28.5633 33.1744 28.7972 33.6786 28.8521C34.0103 28.7443 34.2259 28.6323 34.3378 28.3048C34.997 26.6588 36.5311 24.6853 37.7375 23.3711L37.8453 23.1472C38.177 22.1604 39.0518 19.8553 39.6032 18.6488L39.9349 17.662V17.4423C40.0427 17.1106 40.0427 16.6753 40.0427 16.3478C40.0427 14.7018 39.823 13.1636 39.2757 11.8494C39.1195 11.3464 38.8964 10.8667 38.6123 10.4231L38.3967 9.98367C38.7284 9.4364 39.711 8.77719 40.4822 8.33772L40.59 8.22992L39.6032 7.23903L38.944 7.6785C38.177 8.11798 37.5178 8.34186 36.9705 8.22992C36.9705 8.11798 36.4233 7.79045 36.4233 7.79045H35.648L35.8677 8.01018C36.3072 8.55745 36.5311 8.88499 36.8586 9.4364L36.9664 9.76808L37.1861 10.2034L37.4059 10.8626L37.5137 10.9704L37.6256 11.3021L38.0651 12.8361C38.5004 14.4821 38.6123 15.7963 38.7201 16.895L38.6123 17.0028L38.0651 18.5368C37.5137 20.075 36.8544 22.0526 36.6347 22.8197V22.9275C35.1007 24.4615 34.0061 26.2194 33.5667 27.3181C33.4547 27.4258 33.4547 27.4258 33.4547 27.5378C33.3469 27.5378 33.1272 27.3181 33.0194 27.2061C32.6877 26.8744 32.468 26.2194 32.468 25.4524C32.468 24.5734 32.9075 23.8064 33.5667 23.3669C33.6745 23.2591 33.6745 23.0352 33.6745 23.0352C33.4547 21.9407 33.7864 20.4067 34.4415 19.9672L34.5534 19.8553L34.4415 19.7475C32.468 18.3213 31.5932 15.7963 31.4812 13.8187V13.6031L31.2615 13.7151C31.1537 13.7151 31.0418 13.9348 31.0418 13.9348C31.0418 14.2665 30.934 14.7018 30.934 15.0293C30.934 16.0202 31.1496 16.895 31.2615 17.2267C31.4812 18.2135 32.0285 19.2002 32.9075 20.075V20.187C32.5758 20.6264 32.3602 21.6132 32.3602 22.3802C32.3602 22.5999 32.3602 22.8197 32.468 23.0394C31.5932 23.6945 31.3734 24.6812 31.2656 25.3404V26.0038L30.822 26.551V26.6588C29.9472 27.7534 29.4 28.5245 27.9737 29.1796C26.4397 29.9466 23.5831 30.498 21.6096 30.2783C20.9504 30.1663 20.9504 29.6191 20.9504 29.6191C20.9504 29.5113 21.0624 29.3993 21.0624 29.2915L21.278 29.1796C23.0359 29.2915 24.7896 29.0718 25.5566 28.7443L25.7805 28.4126L25.8883 28.3048H25.6686C24.1345 28.6365 21.0624 28.1929 19.5242 27.5336C17.6585 26.7666 17.1112 26.1074 15.685 24.2417L15.2455 23.6945C15.2415 23.2022 15.1297 22.7168 14.918 22.2724C14.5863 21.8329 14.2588 21.609 14.151 21.5012C14.2864 21.1143 14.3605 20.7087 14.3707 20.2989C14.3897 19.7306 14.2761 19.1656 14.0391 18.6488C15.1377 17.8818 15.685 17.0028 15.685 16.0161C15.685 15.5766 15.3575 14.9215 15.3575 14.9215L14.918 14.7018L15.0258 15.0335C15.1378 16.5675 13.5996 17.662 12.505 18.3213L12.2853 18.6529H12.3931C13.2721 19.1961 13.2721 20.842 13.0523 21.8329L13.1643 21.9407L13.6037 22.2724C14.3707 23.3669 14.2588 25.0129 13.384 25.8918C13.1643 26.1116 13.1643 26.1116 13.0523 26.1116C12.9445 26.1116 12.8326 25.7799 12.8326 25.6721L12.505 25.2326C11.8224 23.6953 10.937 22.2563 9.87234 20.954L9.7604 20.842C9.5682 19.1088 9.27612 17.3881 8.8856 15.6886L8.66586 14.9215V14.7018C8.77366 13.0559 9.21313 11.8494 9.87234 10.4231L10.204 9.5442L10.5316 8.77719V8.6694C10.9813 8.2029 11.4575 7.7627 11.9578 7.35097L12.2853 7.13123L11.8458 7.02344C11.8458 7.02344 11.2986 7.13123 10.6435 7.46291H10.5316C9.98014 7.68265 9.43287 7.89824 8.99754 7.6785C8.99754 7.6785 8.00665 7.13123 7.89885 7.02344H7.903ZM16.0167 26.6588C16.2364 26.8786 17.0076 27.5378 17.3351 27.7534C16.1286 27.9731 15.6892 27.2061 16.0167 26.6588ZM17.9943 28.1929C18.5416 28.5245 19.4206 28.7401 20.1876 28.9599C18.5416 29.731 17.559 29.0718 17.9943 28.1929Z" fill="white" fill-opacity="0.63"/>
<path d="M15.2498 2.63283L15.5814 2.96451L16.4562 3.73152L17.0035 4.27879C17.443 4.61047 17.5549 4.82606 17.5549 4.938C17.5549 4.938 17.443 5.0458 17.3352 5.0458L17.2232 5.15774L17.1155 5.48942H17.3352C18.6495 5.37748 19.7482 6.25643 20.5152 6.91149C21.9414 8.11797 22.9281 10.0956 23.1479 11.9572L24.1346 17.2226L24.5741 17.9937L24.6819 18.2093L24.7938 18.541C25.0136 18.8727 25.2333 19.0883 25.2333 19.2002L25.7806 19.5277L26.5476 20.2947L26.7673 20.5145L27.099 20.8462C27.099 20.954 28.1935 21.0618 28.1935 21.0618C30.0592 21.2815 29.9473 22.2682 29.9473 22.2682C29.9473 22.2682 31.046 20.7342 28.4133 20.075C28.4133 20.075 27.6463 19.9672 27.5343 19.9672L27.3146 19.5277C27.2068 19.5277 27.2068 19.4199 27.2068 19.4199L26.3278 18.6488L25.9962 18.4291C25.9962 18.3213 25.6728 17.5542 25.6728 17.5542L25.2333 16.4514C25.0791 15.9125 24.9682 15.3621 24.9016 14.8055L24.7938 14.3784L24.4621 12.181L24.5741 11.7457C24.6819 10.8668 25.0136 9.98782 25.5608 9.00107C26.1081 7.90238 27.3146 7.13538 27.3146 7.13538C28.1935 6.5881 29.512 6.26057 30.167 6.14863C30.4987 6.14863 30.4987 5.92889 30.6065 5.81695V5.70915H30.4987C30.2131 5.60904 29.9189 5.53548 29.6198 5.48942V5.38162C29.6198 5.38162 29.7275 5.26968 29.8395 5.04994L30.3868 4.61461L30.7184 4.28293C30.7184 4.28293 32.1405 2.96866 32.2525 2.74892L30.934 2.41724L29.5078 3.84346C28.633 4.72241 27.5343 5.8211 27.0948 6.04083C25.8925 6.47616 24.6819 7.68265 24.1346 8.67354L23.8029 9.54834C23.4754 8.56159 23.0359 7.68265 22.3809 7.02758C21.7113 6.22668 20.8394 5.61969 19.8559 5.26968C19.3128 4.71826 17.4471 3.07231 16.4562 2.3053L15.2498 2.63283Z" fill="white" fill-opacity="0.63"/>
<path d="M23.1478 18.1012C23.2597 17.6618 23.04 17.1145 23.04 17.1145L22.928 17.4462C22.8202 17.7737 22.4886 18.1012 21.9413 18.3168L21.8293 18.4288L23.695 21.0615L23.807 21.1734L24.2465 21.7207L25.0135 22.1602L25.2332 22.268L26.108 22.8194L26.875 23.2589H26.987L28.1934 23.3667C28.8527 23.3667 29.2921 23.6983 29.5119 23.8061C30.1669 24.3534 29.8394 25.1204 29.8394 25.1204C29.8394 25.1204 30.8261 24.2456 30.1711 23.2547C29.9472 22.9272 29.6197 22.5996 28.6329 22.4877L27.4264 22.2721L26.7672 21.8326L25.8883 21.3932L25.6727 21.2812L25.0093 20.9537L23.1478 18.1012Z" fill="white" fill-opacity="0.63"/>
<path d="M22.0491 23.6943L22.2688 23.8063L23.04 24.138C23.5872 24.3535 24.2423 24.6811 24.574 24.793L25.4529 25.3403C25.5607 25.3403 26.4397 25.2325 26.987 25.3403C27.754 25.3403 28.3054 25.672 28.6329 25.9995C28.7262 26.1916 28.7652 26.4057 28.7454 26.6184C28.7257 26.8311 28.6481 27.0343 28.521 27.206C28.6329 27.0982 29.3999 26.6587 29.3999 25.7798C29.2921 25.0128 28.6329 24.3535 26.0002 24.3535L25.341 23.9141L25.1213 23.8063L24.0267 23.2549L23.04 22.9273L22.8202 22.5956C22.4886 22.0484 22.0491 21.5011 21.7215 21.0616L21.6138 20.9538C21.6138 20.9538 20.9504 20.0749 20.9504 19.9671C21.0623 19.5276 20.9504 18.9803 20.9504 18.9803C20.9504 18.9803 20.8426 19.1959 20.6229 19.4157C20.5151 19.6354 19.9678 19.9671 19.6361 20.079L19.5283 20.1827L21.8293 23.2507L22.0491 23.6943Z" fill="white" fill-opacity="0.63"/>
<path d="M19.089 24.9007L19.5285 25.3402L20.4074 25.7797L21.1744 26.2192H21.2822L21.8336 26.5508L22.7085 26.9862C22.7651 27.0497 22.8435 27.0896 22.9282 27.0981L24.1347 26.9862C24.9017 26.9862 25.6687 26.9862 26.2201 27.2059C26.8793 27.5376 26.6596 28.0849 26.6596 28.0849C26.6596 28.0849 27.3146 27.6454 27.2068 27.094C27.0949 26.6586 26.5476 26.1072 24.7939 25.9994H23.2599L22.4887 25.5599L22.157 25.3402C22.0492 25.3402 21.0625 24.7929 21.0625 24.7929L20.2955 24.5732C20.2955 24.4613 19.7482 23.6943 19.7482 23.6943L19.5285 23.3626L18.8693 22.4919L18.5376 22.1602C18.5376 22.0483 18.2101 21.613 18.2101 21.613C18.2101 21.613 18.5417 21.0616 18.5417 20.5143L18.2101 20.846C17.9903 21.0657 17.2233 21.3932 16.676 21.501H16.4563L18.2101 23.8062L19.089 24.9007Z" fill="white" fill-opacity="0.63"/>
</svg>
