<svg width="137" height="43" viewBox="0 0 137 43" fill="none" xmlns="http://www.w3.org/2000/svg">
<g clip-path="url(#clip0_161_2947)">
<path d="M133.347 39.8654H133.681C134.053 39.8654 134.39 39.7549 134.39 39.4206C134.39 39.1574 134.202 38.9785 133.756 38.9785C133.57 38.9785 133.458 39.0153 133.384 39.0153V39.8654H133.347ZM133.309 41.563H132.603V38.5732C132.984 38.5069 133.369 38.47 133.756 38.4626C134.117 38.4442 134.477 38.5204 134.8 38.6837C134.891 38.7615 134.964 38.8575 135.016 38.9654C135.067 39.0734 135.095 39.1908 135.097 39.3101C135.082 39.4789 135.012 39.6384 134.898 39.765C134.784 39.8916 134.632 39.9784 134.465 40.0128V40.0496C134.762 40.1602 134.911 40.3813 135.023 40.7866C135.065 41.0415 135.14 41.29 135.246 41.5261H134.502C134.394 41.3036 134.318 41.067 134.276 40.8234C134.202 40.4918 134.053 40.3444 133.644 40.3444H133.309V41.563ZM133.793 37.6151C132.451 37.6151 131.485 38.6863 131.485 40.0154C131.476 40.3265 131.53 40.6362 131.644 40.9262C131.757 41.2162 131.929 41.4807 132.147 41.7042C132.366 41.9276 132.627 42.1055 132.916 42.2272C133.205 42.349 133.516 42.4122 133.83 42.4131C135.171 42.4131 136.141 41.3419 136.141 40.0154C136.153 39.7032 136.101 39.3917 135.989 39.0999C135.876 38.8081 135.705 38.5419 135.485 38.3176C135.266 38.0932 135.002 37.9153 134.712 37.7945C134.421 37.6738 134.108 37.6128 133.793 37.6151ZM133.83 36.9887C134.236 36.9768 134.64 37.0458 135.019 37.1916C135.398 37.3373 135.743 37.5569 136.035 37.8373C136.326 38.1177 136.558 38.4532 136.716 38.824C136.874 39.1947 136.956 39.5932 136.956 39.9957C136.956 40.3982 136.874 40.7967 136.716 41.1674C136.558 41.5382 136.326 41.8737 136.035 42.1541C135.743 42.4345 135.398 42.6541 135.019 42.7998C134.64 42.9456 134.236 43.0145 133.83 43.0026C133.424 43.0145 133.02 42.9456 132.641 42.7998C132.262 42.6541 131.917 42.4345 131.625 42.1541C131.334 41.8737 131.102 41.5382 130.944 41.1674C130.786 40.7967 130.704 40.3982 130.704 39.9957C130.704 39.5932 130.786 39.1947 130.944 38.824C131.102 38.4532 131.334 38.1177 131.625 37.8373C131.917 37.5569 132.262 37.3373 132.641 37.1916C133.02 37.0458 133.424 36.9768 133.83 36.9887Z" fill="white" fill-opacity="0.63"/>
<path d="M16.8248 31.1907H28.3689L32.6189 41.7814H40.4017L23.7151 2.15027H17.7917L0.919189 41.7788H7.9981C7.9981 41.7788 15.0743 24.4346 15.2231 24.1451C15.3718 23.8556 15.5206 23.4818 15.6693 23.0765C15.8181 22.6712 16.0412 22.1527 16.267 21.5263L17.4198 18.7944C17.7917 17.9101 18.0918 17.1705 18.315 16.581C18.5381 15.9914 18.7984 15.3993 19.0215 14.8097C19.2447 14.2202 19.4678 13.6648 19.6564 13.0753C19.845 12.4857 20.1026 11.783 20.3629 10.9356H20.5489C20.8145 11.783 21.0801 12.4857 21.2554 13.0753C21.4308 13.6648 21.63 14.2202 21.8159 14.7729C22.0018 15.3256 22.1878 15.8809 22.4481 16.5073C22.7084 17.1337 22.9793 17.8732 23.3433 18.7944L24.4961 21.6369C24.7192 22.1896 24.9423 22.6686 25.0937 23.0397C25.2451 23.4108 25.3912 23.7766 25.5028 24.0714C25.6143 24.3661 25.7684 24.7004 25.9118 25.032C26.0553 25.3636 26.4431 26.1006 26.4431 26.1006H14.3678L16.8248 31.1907Z" fill="white" fill-opacity="0.63"/>
<path d="M56.7748 20.092H49.7358C49.7358 20.2025 49.7729 41.792 49.7729 41.792H42.8879V20.092H37.5754V15.1124H42.8879V12.1963C42.8603 10.5485 43.1385 8.90964 43.7087 7.36148C44.2016 5.96207 45.0028 4.68899 46.0542 3.63471C47.118 2.57696 48.3816 1.73718 49.7729 1.16335C51.3215 0.51414 52.9731 0.139116 54.6525 0.055325C55.4076 -0.01893 56.1684 -0.01893 56.9236 0.055325C57.5584 0.129018 58.3022 0.276403 59.1601 0.460636L58.079 5.40598C57.6328 5.33229 57.2237 5.29544 56.8492 5.25859C56.3655 5.23639 55.8808 5.24871 55.3989 5.29544C53.2367 5.47967 51.7093 6.14291 50.854 7.25094C50.4012 7.86337 50.0951 8.56991 49.9589 9.31699C49.7795 10.5509 49.7049 11.7975 49.7358 13.0438V15.1124H56.8864V20.092H56.7748Z" fill="white" fill-opacity="0.63"/>
<path d="M102.101 37.8651C101.709 37.7594 101.351 37.5565 101.06 37.2756C100.91 37.0965 100.785 36.8982 100.688 36.686C100.558 36.4328 100.481 36.1561 100.462 35.8727C100.38 35.447 100.342 35.0139 100.351 34.5805C100.313 34.0541 100.313 33.4014 100.313 32.5513V24.6924C100.313 21.2973 99.7184 18.8601 98.5257 17.4231C97.5912 16.3799 96.4023 15.5916 95.0726 15.1334C93.5079 14.5804 91.8569 14.306 90.1957 14.3227C86.8807 14.3227 83.3798 15.2808 79.7673 17.1626V22.3027C81.2281 21.5253 82.7466 20.8593 84.3095 20.3103C85.5244 19.8994 86.7894 19.6516 88.0707 19.5734C89.7468 19.4628 91.0882 19.7576 92.095 20.4946C93.1017 21.2315 93.5851 22.2658 93.5851 23.6318V24.9609C91.3826 25.1118 89.1926 25.4072 87.0295 25.8452C85.0187 26.2531 83.4914 26.7322 82.4846 27.248C81.0901 27.9524 79.9081 29.0092 79.0581 30.3115C78.2217 31.5587 77.7814 33.0253 77.7937 34.5226C77.7937 37.0334 78.4631 38.9521 79.8417 40.2812C80.5761 41.0271 81.4652 41.6063 82.4475 41.9788C83.4681 42.3794 84.5557 42.5866 85.6536 42.5894C86.4011 42.6031 87.1484 42.5538 87.8875 42.442C88.5623 42.3363 89.2239 42.1599 89.8611 41.9156C90.5846 41.6431 91.2831 41.3094 91.9489 40.9181C92.6554 40.4759 93.5107 39.9206 94.4803 39.1837C94.9637 40.9927 96.3804 42.063 98.7303 42.3946C99.3734 42.4736 100.022 42.4983 100.669 42.4683C101.472 42.4056 102.271 42.2948 103.06 42.1367L103.952 37.9256C103.336 38.0115 102.71 37.9911 102.101 37.8651ZM93.4975 30.9643V36.0938C91.3725 37.3492 89.6618 38.0125 88.3975 38.0125C87.1331 38.0125 86.0493 37.6809 85.2684 36.9808C84.8903 36.6319 84.6018 36.1987 84.4267 35.7172C84.2516 35.2356 84.195 34.7196 84.2617 34.212C84.3361 32.6329 85.1196 31.409 86.5726 30.5958C88.0256 29.7825 90.1851 29.193 93.4975 28.7535V30.9643Z" fill="white" fill-opacity="0.63"/>
<path d="M69.6259 0.484253H62.7356V41.7788H69.6259V0.484253Z" fill="white" fill-opacity="0.63"/>
<mask id="mask0_161_2947" style="mask-type:alpha" maskUnits="userSpaceOnUse" x="64" y="4" width="18" height="38">
<path d="M67.1584 40.2656C66.7148 41.4263 67.2806 41.9184 68.2581 41.9184C70.2689 37.3073 71.5465 30.7986 71.9184 26.6008L70.2343 26.406C70.2343 32.2751 68.8318 36.2098 67.1584 40.2656Z" fill="white"/>
<path d="M68.2581 41.908H72.6435C74.2134 37.2626 74.3674 27.7878 74.3674 26.8456C73.8096 26.8114 72.8427 26.6982 71.9131 26.5824C71.5359 30.7908 70.2688 37.3074 68.2581 41.908Z" fill="white"/>
<path d="M72.6436 41.9079H73.22C74.649 37.5784 74.8987 27.8378 74.8987 26.9982C74.7168 26.9709 74.5385 26.9232 74.3675 26.8561C74.3675 27.7878 74.2134 37.2626 72.6436 41.9079Z" fill="white"/>
<path d="M73.22 41.9079H73.4697C74.835 37.6969 75.1351 27.8483 75.1431 27.0219C75.0628 27.0149 74.983 27.0035 74.904 26.9877C74.904 27.8378 74.6384 37.5784 73.22 41.9079Z" fill="white"/>
<path d="M73.4697 41.908H73.4857C74.851 37.7101 75.1538 27.8484 75.1618 27.022H75.1352C75.1352 27.8484 74.835 37.7022 73.4697 41.908Z" fill="white"/>
<path d="M73.4856 41.9079H73.5387C74.8961 37.7364 75.2068 27.8483 75.2228 27.0298C75.2068 27.0298 75.1883 27.0298 75.1697 27.0298C75.1697 27.8562 74.8509 37.7285 73.4856 41.9158V41.9079Z" fill="white"/>
<path d="M73.5388 41.9079H76.474C77.138 39.1418 77.9907 27.822 78.0518 27.2403C77.9376 27.2246 76.3226 27.1614 75.2229 27.0298C75.2229 27.8483 74.8962 37.7469 73.5388 41.9079Z" fill="white"/>
<path d="M76.4739 41.9079C77.1379 39.1418 77.9906 27.822 78.0517 27.2404C78.1579 27.2588 78.2987 27.2667 78.4767 27.2851C78.4767 28.8642 77.8312 38.7023 77.2442 41.9079H76.4739Z" fill="white"/>
<path d="M77.2363 41.908H78.1315C78.3971 40.0657 78.6362 37.0785 78.8062 34.2149C78.5509 34.1862 78.3036 34.1084 78.0784 33.986C77.8393 37.0442 77.5365 40.3025 77.2363 41.908Z" fill="white"/>
<path d="M78.0862 33.9859C78.3102 34.1113 78.558 34.1893 78.814 34.2149C78.9813 31.3514 79.0796 28.6195 79.061 27.3299L78.4767 27.2772C78.4687 28.0747 78.3093 30.9303 78.0862 33.9859Z" fill="#FEFFFF"/>
<path d="M78.1313 41.9079C78.6291 41.944 79.1232 41.801 79.5232 41.5052C79.8467 39.1615 80.033 36.8011 80.081 34.436C79.664 34.324 79.237 34.2526 78.806 34.2228C78.636 37.0863 78.389 40.0814 78.1313 41.9079Z" fill="white"/>
<path d="M78.8062 34.2228C79.237 34.2535 79.664 34.3249 80.0812 34.436C80.1263 33.1964 80.1529 31.9568 80.1715 30.7803C79.8155 30.5171 79.4171 30.2276 79.0001 30.2013C78.9655 31.3962 78.8938 32.7937 78.8062 34.2228Z" fill="#FBFBFD"/>
<path d="M79.0081 30.1933C79.4251 30.2197 79.8049 30.5013 80.1795 30.7724C80.206 29.5854 80.2246 28.4615 80.2512 27.443C79.8501 27.4009 79.4357 27.364 79.0612 27.3298C79.0612 27.9878 79.0612 28.9906 79.0081 30.1933Z" fill="#F8FAFC"/>
<path d="M79.5234 41.5053C79.7967 41.2401 79.9693 40.8896 80.0122 40.513C80.4 38.1443 80.6656 36.302 80.8702 34.3728C80.6842 34.5412 80.4266 34.5149 80.0919 34.4439C80.027 36.8059 79.8372 39.1629 79.5234 41.5053Z" fill="white"/>
<path d="M80.0811 34.436C80.2293 34.4705 80.3805 34.4908 80.5326 34.4965C80.5964 33.4069 80.6389 32.3015 80.684 31.1487C80.5078 31.037 80.3392 30.9139 80.1793 30.7803C80.1528 31.9567 80.1262 33.1885 80.0811 34.436Z" fill="#EEF1F7"/>
<path d="M80.1714 30.7723C80.3321 30.905 80.5006 31.028 80.6761 31.1408C80.7186 29.9907 80.7637 28.7879 80.8169 27.5141C80.6309 27.4877 80.437 27.4693 80.2325 27.443C80.2112 28.4721 80.2112 29.5959 80.1714 30.7723Z" fill="#E3E8F2"/>
<path d="M80.5327 34.4886C80.6556 34.4841 80.7738 34.4408 80.8701 34.3649C80.9683 33.3885 81.056 32.3963 81.1357 31.2909C80.976 31.2861 80.8214 31.2338 80.6921 31.1409C80.639 32.291 80.5965 33.399 80.5327 34.4886Z" fill="#E2E8F2"/>
<path d="M80.6841 31.1408C80.8134 31.2337 80.968 31.286 81.1277 31.2908C81.2074 30.1828 81.2685 28.98 81.3402 27.593L80.8275 27.514C80.7717 28.7879 80.7292 29.9907 80.6841 31.1408Z" fill="#D2DBEB"/>
<path d="M70.2344 26.406C71.3341 26.5218 73.4219 26.785 74.3648 26.8456C74.3648 26.4245 74.3648 26.0744 74.3648 25.7665C73.4006 25.8112 71.4058 25.906 70.2344 25.5454C70.2344 25.8086 70.2344 26.0718 70.2344 26.406Z" fill="white"/>
<path d="M70.2237 25.5559C71.3951 25.9165 73.3793 25.8191 74.3542 25.7744C74.3542 25.4664 74.3276 25.2033 74.301 24.9585C73.2996 25.1164 71.4137 25.2664 70.1626 24.6584C70.2022 24.956 70.2227 25.2558 70.2237 25.5559Z" fill="white"/>
<path d="M70.1707 24.6585C70.1106 24.1391 70.022 23.6233 69.905 23.1135C70.5185 23.6231 71.2933 23.9026 72.0938 23.9031C72.2116 24.2962 72.2951 24.6986 72.3435 25.1059C71.596 25.1046 70.8567 24.9524 70.1707 24.6585Z" fill="white"/>
<path d="M72.3249 25.0901C72.9865 25.1018 73.6478 25.0551 74.3011 24.9506C74.2746 24.7295 74.248 24.519 74.2055 24.3005C73.5557 24.434 72.8926 24.4923 72.2292 24.4742C72.2784 24.6765 72.3104 24.8825 72.3249 25.0901Z" fill="#F4F6FA"/>
<path d="M72.2425 24.4848C72.9058 24.4983 73.5685 24.4391 74.2187 24.3084C74.1736 24.0979 74.1204 23.8689 74.0514 23.6241C73.4116 23.7924 72.753 23.8808 72.0911 23.8873C72.1548 24.1768 72.1973 24.3348 72.2425 24.4848Z" fill="#EEF1F7"/>
<path d="M74.3675 26.8456C74.5396 26.9096 74.7175 26.9572 74.8987 26.9877C74.9173 26.6351 74.9359 26.2929 74.9439 25.9587C74.7422 25.9237 74.5434 25.8745 74.3489 25.8113C74.3489 26.1087 74.3675 26.4429 74.3675 26.8456Z" fill="white"/>
<path d="M74.3675 25.8112C74.5604 25.8798 74.7597 25.9292 74.9624 25.9586C74.981 25.6349 74.989 25.319 74.989 25.0111C74.6889 25.0453 74.4392 24.9927 74.325 25.0111C74.3535 25.2734 74.3677 25.5369 74.3675 25.8007V25.8112Z" fill="#FAFBFD"/>
<path d="M74.3117 25.0295C74.4259 25.0032 74.6756 25.0559 74.9757 25.0295C74.9757 24.7321 74.9757 24.4426 74.9492 24.161C74.657 24.2479 74.3913 24.311 74.2134 24.3531C74.2599 24.58 74.2927 24.8094 74.3117 25.0401V25.0295Z" fill="#EEF1F7"/>
<path d="M74.2134 24.3427C74.3914 24.3006 74.657 24.2374 74.9492 24.1505C74.9305 23.8849 74.8924 23.621 74.835 23.361C74.5762 23.468 74.3099 23.556 74.0381 23.6242C74.1071 23.8873 74.1603 24.1137 74.2054 24.3427H74.2134Z" fill="#E2E8F2"/>
<path d="M74.8987 26.9983L75.0767 27.0246C75.0952 26.6825 75.1218 26.3377 75.1484 26.0061C75.0846 26.0061 75.0156 25.9797 74.9518 25.9797C74.9359 26.3035 74.9173 26.6456 74.8987 26.9983Z" fill="white"/>
<path d="M74.9492 25.9691C75.0103 25.9691 75.082 25.9954 75.1431 25.9954C75.1697 25.6507 75.1883 25.319 75.1962 24.9927C75.1235 25.0068 75.0498 25.0156 74.9758 25.019C74.9758 25.319 74.9758 25.6349 74.9492 25.9691Z" fill="#F9FAFC"/>
<path d="M74.9838 25.0191C75.0556 25.0033 75.1352 25.019 75.207 24.9927C75.207 24.669 75.207 24.3611 75.207 24.061C75.1273 24.0874 75.0476 24.1242 74.9573 24.1505C74.9759 24.4321 74.9838 24.7111 74.9838 25.0191Z" fill="white"/>
<path d="M74.9492 24.1505C75.0368 24.1242 75.1165 24.0874 75.1962 24.061C75.1852 23.7897 75.1532 23.5196 75.1006 23.2531L74.835 23.3583C74.895 23.618 74.9332 23.882 74.9492 24.1479V24.1505Z" fill="#E0E7F1"/>
<path d="M75.0742 27.014H75.1619C75.1884 26.6798 75.215 26.3376 75.2416 25.9955C75.207 25.9955 75.1805 25.9955 75.1433 25.9955C75.1273 26.3271 75.1008 26.6719 75.0742 27.014Z" fill="white"/>
<path d="M75.1431 25.9954C75.1803 25.9954 75.2068 25.9954 75.2413 25.9954C75.2679 25.6533 75.2945 25.3006 75.3051 24.969L75.1962 24.9848C75.1962 25.3111 75.1696 25.6428 75.1431 25.9875V25.9954Z" fill="#F9FAFC"/>
<path d="M75.2069 24.9927C75.2415 24.9927 75.276 24.9927 75.3132 24.9769C75.3318 24.6427 75.3318 24.3163 75.3132 24.0189C75.268 24.0347 75.2335 24.0452 75.199 24.061C75.199 24.3532 75.199 24.669 75.199 24.9927H75.2069Z" fill="white"/>
<path d="M75.1962 24.0611L75.3131 24.019C75.3087 23.7439 75.2785 23.4699 75.2228 23.2004L75.1006 23.2531C75.1572 23.519 75.1892 23.7894 75.1962 24.0611Z" fill="#DFE5F1"/>
<path d="M75.1643 27.022C75.2998 27.0404 75.4299 27.0562 75.5813 27.0667C75.6079 26.7588 75.6345 26.4166 75.6717 26.0482C75.5282 26.0482 75.3874 26.0034 75.244 26.0034C75.2148 26.3456 75.1882 26.6877 75.1643 27.022Z" fill="white"/>
<path d="M75.2415 26.0033C75.3743 26.0033 75.5257 26.0481 75.6665 26.0481C75.7036 25.677 75.7302 25.2927 75.7568 24.9216C75.6054 24.9506 75.4646 24.9506 75.3132 24.9769C75.2946 25.3085 75.268 25.6612 75.2415 26.0033Z" fill="#F9FAFC"/>
<path d="M75.3132 24.9769C75.4646 24.9479 75.6054 24.9479 75.7568 24.9216C75.7728 24.5452 75.7914 24.1768 75.7834 23.8425C75.632 23.8952 75.4806 23.9557 75.3212 24.0189C75.3212 24.3163 75.3212 24.6426 75.3212 24.9769H75.3132Z" fill="white"/>
<path d="M75.3211 24.0189C75.4804 23.9557 75.6318 23.9031 75.7832 23.8426C75.7828 23.5539 75.7562 23.2659 75.7036 22.9819L75.2334 23.2004C75.2881 23.4699 75.3175 23.744 75.3211 24.0189Z" fill="#DFE5F1"/>
<path d="M75.5789 27.0666C76.1101 27.1192 76.7051 27.1535 77.1726 27.1877C77.1885 26.9613 77.2337 26.5665 77.2682 26.0902C76.8167 26.0639 76.2403 26.0375 75.6745 26.056C75.64 26.4165 75.6054 26.7666 75.5789 27.0666Z" fill="white"/>
<path d="M75.6665 26.0481C76.2429 26.0297 76.8193 26.0639 77.2603 26.0823C77.3054 25.598 77.3506 25.0295 77.3851 24.4663C76.9681 24.5979 76.4368 24.7295 75.7462 24.9137C75.7303 25.3006 75.6957 25.6822 75.6665 26.0481Z" fill="#F9FAFC"/>
<path d="M75.7568 24.9217C76.4475 24.7559 76.9787 24.6164 77.3957 24.4743C77.4303 23.9137 77.4568 23.3425 77.4568 22.8583C76.961 23.2803 76.3947 23.6134 75.7834 23.8426C75.7914 24.1769 75.7728 24.5453 75.7568 24.9217Z" fill="white"/>
<path d="M75.7833 23.84C76.3931 23.6076 76.9589 23.2749 77.4567 22.8557C77.4721 22.4819 77.4454 22.1076 77.377 21.7397C76.924 22.2762 76.3511 22.7006 75.7036 22.9794C75.7553 23.2634 75.782 23.5514 75.7833 23.84Z" fill="#DFE5F1"/>
<path d="M77.1753 27.1877C77.6454 27.214 77.9987 27.2325 78.0519 27.2404C78.0704 27.093 78.1129 26.6613 78.1661 26.0902C77.869 26.129 77.568 26.129 77.2709 26.0902C77.2364 26.5666 77.1912 26.9614 77.1753 27.1877Z" fill="white"/>
<path d="M77.2708 26.0902C77.5679 26.129 77.8688 26.129 78.1659 26.0902C78.219 25.5112 78.2908 24.79 78.3439 24.0531C78.0503 24.2386 77.7308 24.3805 77.3956 24.4742C77.3611 25.0453 77.3159 25.6086 77.2708 26.0902Z" fill="#F9FAFC"/>
<path d="M77.3958 24.4743C77.7309 24.3806 78.0504 24.2387 78.344 24.0532C78.3972 23.3162 78.4423 22.5767 78.4609 21.9476C78.105 22.2108 77.8393 22.5266 77.4489 22.8504C77.4568 23.3425 77.4303 23.9137 77.3958 24.4743Z" fill="white"/>
<path d="M77.4566 22.8582C77.8391 22.5345 78.1127 22.2266 78.4687 21.9555C78.5025 21.506 78.4784 21.0541 78.397 20.6106C78.0215 20.9521 77.68 21.3284 77.377 21.7344C77.4448 22.105 77.4716 22.4819 77.4566 22.8582Z" fill="#DEE5F1"/>
<path d="M78.0518 27.2404C78.2032 27.2588 78.4157 27.2852 78.6733 27.3036C78.6893 27.0562 78.7424 26.5403 78.8141 25.8903C78.6135 25.9896 78.3984 26.0571 78.1766 26.0903C78.1129 26.6614 78.0704 27.093 78.0518 27.2404Z" fill="white"/>
<path d="M78.166 26.0902C78.389 26.0586 78.6052 25.991 78.8062 25.8902C78.8673 25.2401 78.947 24.4479 79.0081 23.6583C78.8006 23.8138 78.5781 23.9487 78.344 24.061C78.2909 24.79 78.2298 25.5112 78.166 26.0902Z" fill="#F8FAFC"/>
<path d="M78.6733 27.3035C78.939 27.3298 79.2312 27.3561 79.5419 27.3825C79.5685 26.9087 79.6216 26.2481 79.6748 25.4849C79.3719 25.6244 79.0718 25.7744 78.8141 25.8902C78.753 26.5403 78.6893 27.0561 78.6733 27.3035Z" fill="#F8FAFC"/>
<path d="M78.8142 25.8902C79.0798 25.7744 79.372 25.627 79.6748 25.4848C79.728 24.7295 79.7811 23.8768 79.8236 23.0345C79.558 23.253 79.2764 23.4741 79.0267 23.6504C78.963 24.44 78.8833 25.2296 78.8222 25.8902H78.8142Z" fill="#EEF1F7"/>
<path d="M78.3518 24.0531C78.5892 23.9452 78.8129 23.81 79.0185 23.6505C79.0796 22.8609 79.1327 22.0713 79.1513 21.3844C78.9407 21.5938 78.7123 21.7848 78.4687 21.9555C78.4501 22.5766 78.4049 23.3136 78.3518 24.0531Z" fill="#E7ECF4"/>
<path d="M78.4687 21.9555C78.7098 21.7816 78.9379 21.5907 79.1513 21.3844C79.1849 20.8795 79.1581 20.3724 79.0717 19.8737C78.8805 20.15 78.6537 20.4004 78.397 20.6185C78.4733 21.0599 78.4973 21.5086 78.4687 21.9555Z" fill="#D7DFEE"/>
<path d="M79.0186 23.6505C79.2842 23.4662 79.5498 23.2531 79.8154 23.0346C79.8606 22.1924 79.8792 21.3476 79.8685 20.6185C79.6375 20.8869 79.3919 21.1426 79.1328 21.3844C79.1328 22.0608 79.0796 22.8583 79.0186 23.6505Z" fill="#DCE3EF"/>
<path d="M79.1489 21.3844C79.3879 21.1476 79.6456 20.8817 79.8846 20.6185C79.8896 20.019 79.8416 19.4201 79.7412 18.8289C79.5389 19.1912 79.3172 19.5426 79.0771 19.8816C79.1556 20.3812 79.1796 20.8877 79.1489 21.3923V21.3844Z" fill="#CAD4E7"/>
<path d="M79.5498 27.3825C79.8606 27.4088 80.1873 27.443 80.4981 27.4799C80.5326 26.7851 80.5698 25.9692 80.5964 25.098C80.3042 25.2033 79.9934 25.3454 79.6826 25.4849C79.6215 26.2482 79.5764 26.9088 79.5498 27.3825Z" fill="#E6EAF4"/>
<path d="M79.6799 25.4849C79.9801 25.3455 80.2988 25.2033 80.591 25.0981C80.6176 24.2295 80.6282 23.3163 80.6282 22.4109C80.3785 22.5951 80.097 22.8162 79.8313 23.0346C79.7888 23.8769 79.7357 24.7296 79.6826 25.4849H79.6799Z" fill="#D7DFEE"/>
<path d="M80.4901 27.4798C80.8009 27.514 81.0931 27.5482 81.3401 27.593C81.3747 26.8034 81.3853 25.8901 81.3667 24.9321C81.0929 24.9373 80.8226 24.9936 80.5698 25.0979C80.5512 25.9691 80.5167 26.7771 80.4822 27.4798H80.4901Z" fill="#C8D3E7"/>
<path d="M80.5859 25.0981C80.8388 24.994 81.1091 24.9378 81.3828 24.9322C81.3669 23.9742 81.3217 22.982 81.2606 21.9977C81.0398 22.1183 80.8293 22.2565 80.6311 22.4109C80.6311 23.3163 80.6311 24.2295 80.5939 25.0981H80.5859Z" fill="#B5C5DE"/>
<path d="M79.8235 23.0346C80.0891 22.8162 80.3733 22.5951 80.6204 22.4109C80.6204 21.5055 80.5938 20.6291 80.5407 19.829C80.3441 20.0737 80.1236 20.3554 79.8846 20.6185C79.8872 21.3581 79.8607 22.1924 79.8235 23.0346Z" fill="#C2CFE4"/>
<path d="M79.8766 20.6185C80.1183 20.3553 80.3388 20.0737 80.5327 19.8289C80.4931 19.1337 80.4132 18.4412 80.2937 17.755C80.1343 18.0893 79.9404 18.4577 79.7358 18.8288C79.8405 19.4195 79.8876 20.0189 79.8766 20.6185Z" fill="#B1C1DC"/>
<path d="M80.6229 22.4108C80.8194 22.2541 81.0301 22.1158 81.2524 21.9976C81.1887 21.0238 81.101 20.0658 81.0027 19.1973C80.8965 19.3631 80.7371 19.5842 80.5432 19.8289C80.5857 20.6185 80.6123 21.516 80.6229 22.4108Z" fill="#A0B4D4"/>
<path d="M80.5434 19.8289C80.7373 19.5841 80.8967 19.363 81.0029 19.1972C80.9073 18.3261 80.7904 17.5549 80.6656 16.9312C80.5859 17.1312 80.4637 17.4233 80.2937 17.7549C80.4226 18.4401 80.506 19.1329 80.5434 19.8289Z" fill="#8FA7CC"/>
<path d="M69.8892 23.1135C70.5024 23.6235 71.2774 23.903 72.0779 23.9031C71.9 23.0241 71.7326 22.3398 71.5467 21.6976C70.6551 21.2085 69.825 20.6166 69.0737 19.9342C69.4355 20.9693 69.7083 22.0329 69.8892 23.1135Z" fill="white"/>
<path d="M69.0736 19.9158C69.82 20.6048 70.6508 21.1981 71.5466 21.6818C71.3606 21.0317 71.1561 20.4264 70.925 19.7053C69.9053 19.2932 68.9727 18.6951 68.1758 17.9419C68.5217 18.5781 68.8217 19.2377 69.0736 19.9158Z" fill="white"/>
<path d="M72.0858 23.8952C72.7476 23.8861 73.4058 23.7977 74.0462 23.632C73.9665 23.332 73.823 22.8688 73.6716 22.2792C73.159 22.3845 72.378 22.1292 71.5466 21.6897C71.7405 22.3319 71.9079 23.0056 72.0779 23.8952H72.0858Z" fill="#EBEEF6"/>
<path d="M71.5467 21.6818C72.3781 22.1292 73.159 22.3766 73.6717 22.2714C73.5229 21.6818 73.3529 20.9712 73.2122 20.1658C72.7154 20.2527 71.8654 20.0869 70.9331 19.7079C71.1562 20.4185 71.3608 21.0396 71.5467 21.6818Z" fill="#F1F4F9"/>
<path d="M74.046 23.6242C74.4101 23.5302 74.7655 23.406 75.1085 23.2531C75.0023 22.9636 74.8615 22.5162 74.6915 21.9371C74.3646 22.0731 74.027 22.1823 73.6821 22.2635C73.8362 22.8583 73.9557 23.3136 74.046 23.6242Z" fill="#DEE5F1"/>
<path d="M73.6716 22.2608C74.0178 22.1812 74.3564 22.072 74.6836 21.9344C74.5243 21.3633 74.3463 20.6606 74.1789 19.8789C73.8633 20.0019 73.537 20.0962 73.2041 20.1605C73.3529 20.9711 73.5229 21.6818 73.6716 22.2608Z" fill="#E7ECF4"/>
<path d="M75.1008 23.253C75.1805 23.2188 75.2681 23.1846 75.3398 23.1477C75.2416 22.8582 75.1008 22.4108 74.9414 21.8318C74.8511 21.866 74.7714 21.9107 74.6758 21.945C74.8511 22.524 75.0025 22.9635 75.1008 23.253Z" fill="#DBE2EF"/>
<path d="M74.6836 21.9449C74.7747 21.9135 74.8635 21.8756 74.9492 21.8318C74.7898 21.2606 74.6198 20.5579 74.4604 19.7762L74.1948 19.8894C74.3462 20.6816 74.5242 21.3738 74.6836 21.9449Z" fill="#E3E9F3"/>
<path d="M75.3478 23.1478C75.4727 23.0951 75.5869 23.0346 75.7037 22.982C75.5975 22.6925 75.4541 22.245 75.2947 21.666L74.9414 21.8239C75.1008 22.4108 75.2416 22.8583 75.3478 23.1478Z" fill="#DAE1EE"/>
<path d="M74.9493 21.8318L75.3052 21.6739C75.1432 21.1028 74.9759 20.408 74.8165 19.6368C74.7023 19.679 74.5854 19.7316 74.4712 19.7763C74.6332 20.5659 74.7899 21.2607 74.9493 21.8318Z" fill="#E2E8F2"/>
<path d="M75.6957 22.9819C76.5067 22.6165 77.2045 22.0432 77.7171 21.3212C77.5824 20.9791 77.475 20.6271 77.3957 20.2684C76.7885 20.8626 76.0728 21.3369 75.2866 21.666C75.454 22.2608 75.5974 22.6924 75.6957 22.9819Z" fill="#D9E1EE"/>
<path d="M75.2947 21.6817C76.0777 21.3469 76.7924 20.8733 77.4037 20.2842C77.2816 19.8105 77.1381 19.213 77.0053 18.5366C76.325 18.9994 75.5865 19.3719 74.8086 19.6446C74.968 20.4184 75.1433 21.1106 75.2947 21.6817Z" fill="#E1E7F2"/>
<path d="M77.725 21.3213C77.9187 21.0603 78.1445 20.8243 78.397 20.6186C78.2642 20.1632 78.1128 19.1184 77.8843 17.7393C77.6001 17.913 77.3531 18.2656 77.0051 18.5288C77.2973 19.8895 77.5364 20.8975 77.725 21.3213Z" fill="#D5DDEC"/>
<path d="M78.397 20.6185C78.3359 20.3921 78.2642 20.021 78.1765 19.5315C78.435 19.3195 78.6536 19.0637 78.822 18.7761C78.9203 19.2314 78.9999 19.5999 79.0717 19.8736C78.8805 20.15 78.6537 20.4004 78.397 20.6185Z" fill="#CED8E9"/>
<path d="M79.0717 19.8737C79 19.6105 78.9123 19.2315 78.822 18.7762C79.057 18.4077 79.2707 18.0263 79.4622 17.6339C79.5578 18.055 79.6481 18.4577 79.7278 18.8288C79.5278 19.1883 79.3088 19.5371 79.0717 19.8737Z" fill="#C0CDE3"/>
<path d="M78.1767 19.521C78.097 19.0288 77.9987 18.4235 77.8845 17.7286C78.1233 17.563 78.3378 17.3655 78.522 17.1417C78.6283 17.7655 78.7266 18.3103 78.8222 18.7656C78.6545 19.0537 78.4359 19.3096 78.1767 19.521Z" fill="#C9D4E7"/>
<path d="M78.8221 18.7762C78.7265 18.3183 78.6282 17.7735 78.522 17.1497C78.7424 16.8865 78.9735 16.5891 79.186 16.2891C79.2763 16.7628 79.364 17.2129 79.4517 17.6419C79.2578 18.0498 79.0346 18.442 78.8221 18.7762Z" fill="#BAC8E0"/>
<path d="M79.7358 18.8393C79.6562 18.4682 79.5579 18.0655 79.4702 17.6444C79.6721 17.2391 79.8687 16.8364 80.028 16.4838C80.1157 16.8707 80.206 17.2918 80.2937 17.7655C80.1343 18.0998 79.9483 18.4682 79.7358 18.8393Z" fill="#A8BAD8"/>
<path d="M80.2937 17.755C80.1981 17.2813 80.1078 16.8602 80.0281 16.4733C80.1875 16.1311 80.3282 15.8416 80.4265 15.6837C80.4982 16.018 80.5779 16.4206 80.6735 16.9391C80.5859 17.1418 80.4531 17.4313 80.2937 17.755Z" fill="#88A3C9"/>
<path d="M79.4622 17.634C79.3639 17.2129 79.2762 16.7549 79.1965 16.2812C79.4197 15.9733 79.6215 15.6759 79.7995 15.41C79.8606 15.7364 79.9403 16.0864 80.0306 16.4628C79.8606 16.826 79.664 17.2287 79.4622 17.634Z" fill="#A3B6D5"/>
<path d="M80.0202 16.4706C79.9298 16.0837 79.8502 15.7337 79.7891 15.4179C79.967 15.1547 80.1264 14.9441 80.2327 14.8204C80.2937 15.0836 80.3469 15.3468 80.4186 15.6837C80.3203 15.8574 80.1875 16.139 80.0202 16.4733V16.4706Z" fill="#86A1C7"/>
<path d="M68.1758 17.9419C67.5117 16.626 66.0508 13.8914 64.9883 12.2833C65.91 13.2861 67.6923 14.5415 69.3498 15.5416C69.8811 16.5786 70.4469 18.2209 70.9436 19.7053C69.9157 19.2982 68.9761 18.6996 68.1758 17.9419Z" fill="white"/>
<path d="M70.9145 19.7053C71.8442 20.0843 72.7048 20.2501 73.1935 20.1632C73.0706 19.5313 72.9995 18.8905 72.981 18.2472C72.5003 18.3104 71.366 18.0024 70.1335 17.4576C70.4204 18.1867 70.686 18.9684 70.9145 19.7053Z" fill="#FDFDFE"/>
<path d="M70.1547 17.4576C71.3872 18.0103 72.5214 18.3182 72.9995 18.2471C72.9995 17.7813 73.0181 17.4576 73.0181 17.2286C72.5559 17.2628 71.0126 16.5338 69.3472 15.531C69.6048 16.06 69.8784 16.7338 70.1547 17.4576Z" fill="white"/>
<path d="M73.212 20.1711C73.5704 20.1036 73.9211 20.0005 74.2586 19.8631C74.1639 19.2388 74.1337 18.6065 74.1683 17.9761C73.7894 18.1094 73.3978 18.2037 72.9995 18.2577C73.0144 18.9004 73.0855 19.5406 73.212 20.1711Z" fill="#F7F8FC"/>
<path d="M72.9915 18.2577C73.3898 18.2037 73.7815 18.1094 74.1603 17.9761C74.1817 17.6344 74.2234 17.2943 74.2851 16.9575C73.8681 17.0872 73.4407 17.1814 73.0075 17.2391C73.0075 17.4655 72.9809 17.7866 72.9915 18.2577Z" fill="#FEFFFF"/>
<path d="M74.2587 19.8631L74.4606 19.7842C74.3709 19.1593 74.3477 18.5268 74.3915 17.8971L74.1684 17.9761C74.1297 18.6065 74.16 19.2392 74.2587 19.8631Z" fill="#F1F3F9"/>
<path d="M74.1604 17.976L74.3809 17.8971C74.4181 17.4312 74.4871 17.1075 74.5243 16.8785L74.2852 16.9575C74.2587 17.1865 74.1949 17.5234 74.1604 17.976Z" fill="#FBFCFD"/>
<path d="M74.4526 19.7763C74.6386 19.6973 74.8351 19.6183 75.029 19.5473C74.9517 18.936 74.9428 18.3182 75.0025 17.705C74.7954 17.7618 74.5914 17.8294 74.3915 17.9076C74.3485 18.5345 74.3689 19.164 74.4526 19.7868V19.7763Z" fill="#F0F3F9"/>
<path d="M74.3914 17.8971C74.5912 17.8189 74.7952 17.7513 75.0023 17.6945C75.0405 17.3577 75.0999 17.0237 75.1803 16.6943C74.96 16.74 74.7433 16.8015 74.5321 16.8786C74.4976 17.1049 74.4259 17.4313 74.3914 17.8971Z" fill="#FAFBFD"/>
<path d="M75.029 19.5473C75.3743 19.4078 75.7302 19.2578 76.0676 19.092C75.9704 18.4825 75.9552 17.863 76.0224 17.2496C75.7086 17.4498 75.3641 17.5982 75.0024 17.6892C74.942 18.3085 74.9509 18.9325 75.029 19.5499V19.5473Z" fill="white"/>
<path d="M75.0024 17.6945C75.3642 17.6036 75.7086 17.4552 76.0224 17.255C76.0756 16.7997 76.1552 16.4654 76.1738 16.2365C75.9014 16.4916 75.5528 16.6523 75.1804 16.6944C75.0952 17.0227 75.0357 17.3571 75.0024 17.6945Z" fill="#F7F8FC"/>
<path d="M76.0676 19.1025C76.3977 18.9419 76.7116 18.7506 77.0053 18.5314C76.8921 17.9051 76.836 17.27 76.838 16.6338C76.5781 16.8611 76.302 17.0696 76.0119 17.2576C75.9543 17.8725 75.973 18.4921 76.0676 19.1025Z" fill="#E3E9F3"/>
<path d="M76.0224 17.2602C76.3098 17.0696 76.5848 16.8613 76.8458 16.6364C76.8458 16.1443 76.883 15.7942 76.8458 15.5389C76.6067 15.7574 76.4128 16.0206 76.1552 16.2417C76.1552 16.4864 76.0675 16.8023 76.0144 17.2602H76.0224Z" fill="#EEF1F7"/>
<path d="M77.0052 18.5288C77.3425 18.2656 77.6002 17.9129 77.8844 17.7392C77.7871 17.1709 77.7541 16.5935 77.7861 16.0179C77.4328 16.1511 77.1122 16.3575 76.8458 16.6233C76.8364 17.2621 76.8897 17.9002 77.0052 18.5288Z" fill="#D8DFEE"/>
<path d="M76.8379 16.6233C77.1029 16.3558 77.4239 16.1492 77.7782 16.018C77.8048 15.5784 77.8473 15.2705 77.8393 15.0784C77.4635 15.1062 77.1106 15.2679 76.8459 15.5337C76.8724 15.7811 76.8459 16.139 76.8459 16.6233H76.8379Z" fill="#E1E7F2"/>
<path d="M77.8845 17.7392C77.7872 17.1708 77.7542 16.5935 77.7862 16.0179C78.0099 15.9263 78.2164 15.7982 78.3972 15.6389C78.3963 16.1451 78.438 16.6504 78.522 17.1496C78.3371 17.3735 78.1226 17.5717 77.8845 17.7392Z" fill="#C5D1E5"/>
<path d="M78.5218 17.1496C78.4375 16.6504 78.3957 16.1451 78.397 15.6389C78.6095 15.4626 78.814 15.252 79.0186 15.052C79.0531 15.402 79.0983 15.7968 79.1859 16.289C78.9734 16.589 78.7423 16.8864 78.5218 17.1496Z" fill="#B5C5DE"/>
<path d="M77.7861 16.0179C77.8127 15.5784 77.8579 15.2704 77.8472 15.0783C78.0651 15.041 78.2611 14.9246 78.3971 14.752C78.4236 14.9809 78.3971 15.252 78.3971 15.6389C78.2163 15.7982 78.0097 15.9263 77.7861 16.0179Z" fill="#CDD8E9"/>
<path d="M78.3972 15.639C78.3972 15.2626 78.4238 14.981 78.3972 14.752C78.5791 14.5506 78.7418 14.333 78.8833 14.1019C78.9444 14.3993 78.9789 14.6994 79.0161 15.0494C78.8116 15.26 78.5991 15.4705 78.3945 15.6469L78.3972 15.639Z" fill="#BDCBE2"/>
<path d="M79.1859 16.2812C79.0982 15.789 79.0531 15.3942 79.0186 15.0415C79.2231 14.831 79.417 14.6204 79.5843 14.4441C79.6561 14.7704 79.7171 15.0784 79.7889 15.4205C79.6109 15.6837 79.409 15.9811 79.1859 16.2812Z" fill="#A0B4D4"/>
<path d="M79.789 15.4178C79.7173 15.0836 79.6562 14.7677 79.5845 14.4414C79.7234 14.294 79.8754 14.1592 80.0387 14.0387C80.1078 14.3019 80.1715 14.5651 80.2326 14.8283C80.1263 14.952 79.967 15.1625 79.789 15.4257V15.4178Z" fill="#86A1C7"/>
<path d="M79.0186 15.0415C78.9814 14.6915 78.9468 14.3914 78.8857 14.094C79.0451 13.8572 79.1859 13.6098 79.3373 13.4255C79.4356 13.794 79.5153 14.1204 79.6029 14.4441C79.425 14.6204 79.2311 14.831 79.0265 15.0415H79.0186Z" fill="#A5B8D6"/>
<path d="M79.5845 14.444C79.5154 14.1203 79.4357 13.7939 79.3188 13.4255C79.4159 13.2598 79.5652 13.1303 79.7438 13.057C79.8581 13.4518 79.9457 13.7676 80.0281 14.0413C79.8685 14.1623 79.7201 14.2971 79.5845 14.444Z" fill="#89A3C9"/>
<path d="M64.9777 12.2939C66.8211 14.2967 72.0938 17.3182 73.0076 17.2392C73.0076 17.0629 72.973 16.6154 72.9013 15.9812C71.6077 15.6311 66.8929 12.9439 65.0388 11.1516C64.9326 11.7412 64.906 12.1781 64.9777 12.2939Z" fill="white"/>
<path d="M65.0388 11.1516C66.8982 12.9439 71.5998 15.6258 72.9013 15.9811C72.6357 13.3492 71.9185 7.47216 71.7485 4.74025C70.856 4.71309 69.9685 4.88242 69.15 5.23604C68.3315 5.58966 67.6023 6.11876 67.0151 6.78523C65.9791 7.98012 65.3496 9.55399 65.0388 11.1516Z" fill="white"/>
<path d="M73.0076 17.2392C73.441 17.1825 73.8685 17.0883 74.2853 16.9575C74.179 15.2442 73.1324 8.2091 72.4763 4.75868C72.1921 4.74025 71.9982 4.75868 71.7485 4.75868C71.9531 8.14067 73.0076 16.339 73.0076 17.2497V17.2392Z" fill="white"/>
<path d="M74.2852 16.9575L74.434 16.9049C74.3012 15.1205 73.2466 8.21962 72.5374 4.75867H72.4763C73.1324 8.20909 74.179 15.2521 74.2852 16.9575Z" fill="white"/>
<path d="M74.4446 16.9127C74.6851 16.825 74.9309 16.7521 75.1804 16.6943C75.0901 15.5784 74.782 13.4702 74.3835 11.212C74.2321 11.212 73.9506 11.4147 73.7195 11.4594C74.0807 13.8387 74.3676 16.0179 74.4446 16.9127Z" fill="white"/>
<path d="M73.7089 11.47C73.94 11.4252 74.2215 11.2226 74.3729 11.2226C73.9665 8.96705 73.4698 6.55886 72.9811 4.82181C72.838 4.79524 72.6934 4.77765 72.5481 4.76917C72.9014 6.4878 73.337 9.07759 73.7089 11.47Z" fill="white"/>
<path d="M75.1645 16.6944C75.8392 16.6049 76.1951 16.2285 76.5298 15.86C76.4873 15.0705 76.397 14.1914 76.2642 13.2939C75.8923 13.8045 75.5018 14.323 74.8723 14.3836C75.029 15.331 75.1273 16.1311 75.1645 16.6944Z" fill="#FDFDFE"/>
<path d="M74.8989 14.3836C75.5284 14.323 75.9082 13.8045 76.2907 13.294C76.1579 12.3991 75.9879 11.4674 75.7834 10.5278C75.3504 10.8516 74.9068 11.2042 74.3835 11.2121C74.5695 12.3465 74.7554 13.4361 74.8989 14.3836Z" fill="white"/>
<path d="M74.3676 11.2068C74.8988 11.2068 75.3345 10.8462 75.7674 10.5225C75.3664 8.6648 74.7846 6.84996 74.0302 5.10344C73.6938 4.96827 73.3439 4.86858 72.9863 4.80603C73.4698 6.54835 73.9665 8.95654 74.3676 11.2068Z" fill="white"/>
<path d="M76.535 15.86C76.6923 15.6707 76.8705 15.4994 77.0663 15.3494C77.0211 14.3835 76.9521 13.4781 76.8432 12.6096C76.6235 12.8195 76.4275 13.0525 76.2588 13.3044C76.3916 14.1914 76.4819 15.0599 76.5244 15.86H76.535Z" fill="#F1F4F9"/>
<path d="M76.28 13.2939C76.4508 13.0443 76.6466 12.8124 76.8644 12.6018C76.7646 11.7589 76.6165 10.9224 76.4208 10.0962C76.1923 10.2207 75.9754 10.3652 75.7727 10.5278C75.9772 11.4674 76.1472 12.3991 76.28 13.2939Z" fill="#F8FAFC"/>
<path d="M77.085 15.3494C77.3105 15.1952 77.5739 15.1042 77.8473 15.0862C77.8154 14.1508 77.7329 13.2178 77.6003 12.2911C77.322 12.3029 77.0588 12.4197 76.8645 12.6175C76.9708 13.4702 77.0239 14.3651 77.085 15.3494Z" fill="#E6EBF4"/>
<path d="M76.8644 12.6017C77.062 12.4087 77.3233 12.2929 77.6002 12.2754C77.4905 11.4902 77.3182 10.7149 77.0849 9.95666C76.8516 9.93033 76.6159 9.97924 76.4128 10.0961C76.6103 10.9224 76.7611 11.7588 76.8644 12.6017Z" fill="#EFF3F9"/>
<path d="M75.7646 10.5278C76.2002 10.2041 76.6146 9.89619 77.0927 9.95673C76.5897 8.4153 75.8804 6.94766 74.9837 5.59303C74.6806 5.40777 74.3636 5.24587 74.0354 5.10876C74.7832 6.85697 75.3622 8.67144 75.7646 10.5278Z" fill="#F9FAFC"/>
<path d="M77.8472 15.0784C77.7595 12.9966 77.5364 11.4148 77.0955 9.9646C77.2568 10.0086 77.4224 10.0351 77.5895 10.0436C78.0603 11.5728 78.3343 13.1548 78.405 14.752C78.263 14.9218 78.0658 15.0372 77.8472 15.0784Z" fill="#D5DEED"/>
<path d="M78.397 14.752C78.3349 13.1539 78.0607 11.5708 77.5815 10.0436C77.725 10.0436 77.8472 10.0436 77.9534 10.0436C78.4163 11.3574 78.7282 12.7188 78.8831 14.102C78.7372 14.3307 78.5738 14.5481 78.3944 14.752H78.397Z" fill="#C5D1E5"/>
<path d="M77.0956 9.96452C76.591 8.42324 75.8808 6.95569 74.9839 5.60083C75.1875 5.72337 75.3835 5.85783 75.5709 6.00351C76.4126 7.26071 77.0909 8.61808 77.5897 10.0435C77.4226 10.035 77.2569 10.0086 77.0956 9.96452Z" fill="#E9EDF5"/>
<path d="M77.5816 10.0435C77.7251 10.0435 77.8472 10.0435 77.9535 10.0435C77.7322 9.43654 77.4722 8.84405 77.1752 8.26964C77.0368 8.19693 76.894 8.13276 76.7476 8.07751C77.0839 8.70702 77.3631 9.36496 77.5816 10.0435Z" fill="#DBE2EF"/>
<path d="M76.7581 8.06954C76.9096 8.13797 77.0503 8.19061 77.1831 8.26167C76.883 7.68265 76.535 7.09311 76.1472 6.49567C75.9586 6.32196 75.7647 6.15352 75.5708 5.99561C76.0303 6.73254 76.4208 7.40894 76.7581 8.06954Z" fill="#E1E7F2"/>
<path d="M78.8833 14.1019C78.7275 12.7186 78.4147 11.3572 77.9509 10.0435C78.064 10.039 78.1773 10.0479 78.2883 10.0698C78.7253 11.1588 79.0726 12.281 79.3269 13.4255C79.1834 13.6281 79.0426 13.865 78.8833 14.1019Z" fill="#AEBFDB"/>
<path d="M79.3373 13.4255C79.435 13.2604 79.5841 13.1311 79.7623 13.0571C79.6109 12.557 79.4515 12.0727 79.2762 11.599C79.1386 11.5967 79.0032 11.6332 78.8857 11.7043C79.0531 12.2675 79.2045 12.8386 79.3373 13.4255Z" fill="#90A8CC"/>
<path d="M78.8832 11.7042C79.0033 11.6394 79.137 11.6034 79.2737 11.5989C79.0957 11.1252 78.9018 10.6672 78.6973 10.2303C78.5752 10.152 78.4404 10.095 78.2988 10.0619C78.522 10.599 78.7171 11.1472 78.8832 11.7042Z" fill="#9DB1D2"/>
<path d="M77.9641 10.0356C78.2242 10.0197 78.4825 10.0881 78.6999 10.2304C78.4874 9.78032 78.2643 9.35133 78.0173 8.93022C77.7889 8.6558 77.5082 8.42864 77.1912 8.26172C77.4806 8.8389 77.7387 9.43105 77.9641 10.0356Z" fill="#C4D0E5"/>
<path d="M77.1832 8.26173C77.4997 8.42813 77.7797 8.65539 78.0066 8.93024C77.7596 8.5065 77.4939 8.09592 77.2097 7.69061C76.8932 7.26092 76.5376 6.86094 76.1472 6.49573C76.5247 7.06529 76.8705 7.65483 77.1832 8.26173Z" fill="#CFD8E9"/>
</mask>
<g mask="url(#mask0_161_2947)">
<rect x="60.1562" y="3.15833" width="28.1562" height="46.0583" fill="#252525"/>
</g>
<path d="M124.435 21.9974C123.495 21.373 122.486 20.8573 121.428 20.4604C120.513 20.1636 119.554 20.0221 118.591 20.0419C117.603 20.0233 116.624 20.2247 115.725 20.6315C114.868 21.0216 114.096 21.5731 113.451 22.2554C112.785 22.9811 112.279 23.8361 111.964 24.7662C111.586 25.781 111.402 26.8563 111.419 27.9376C111.407 29.129 111.597 30.3139 111.98 31.4433C112.319 32.4563 112.85 33.396 113.544 34.2121C114.203 34.9754 115.018 35.5917 115.935 36.0202C116.877 36.465 117.909 36.6918 118.952 36.6835C119.547 36.6835 120.105 36.6466 120.589 36.6098C121.08 36.5509 121.566 36.4523 122.042 36.315C122.538 36.1635 123.023 35.9789 123.495 35.7623C123.978 35.5412 124.576 35.2096 125.208 34.8753L127.479 39.5259C124.709 41.6118 121.313 42.7165 117.834 42.6631C115.933 42.6951 114.045 42.3431 112.285 41.6288C110.661 40.9773 109.208 39.9684 108.035 38.6784C106.815 37.3573 105.887 35.7984 105.31 34.1015C104.647 32.1908 104.319 30.1817 104.34 28.1614C104.34 26.3446 104.721 24.5475 105.459 22.8844C106.172 21.2318 107.196 19.7286 108.476 18.4549C109.739 17.1852 111.229 16.1589 112.87 15.4282C114.519 14.6848 116.309 14.2955 118.121 14.286C119.804 14.2615 121.483 14.4724 123.107 14.9124C124.619 15.3737 126.042 16.0856 127.314 17.0179L124.435 21.9974Z" fill="white" fill-opacity="0.63"/>
<path d="M62.3249 17.549C60.0167 19.7993 57.8917 20.9442 56.7468 21.6442C56.2634 21.9759 56.0376 22.1996 56.0376 22.7891C56.0376 22.9365 56.0748 23.0102 56.1864 23.0102C56.4121 23.0102 56.7468 22.6786 57.4162 22.6786C59.1295 22.6786 60.9171 24.6341 62.9943 24.6341C65.5284 24.6341 69.4012 21.6074 70.3681 20.9073L70.5195 21.1284C69.0665 22.7075 63.5548 27.1054 61.4298 27.1054C60.2026 27.1054 59.5306 26.7738 59.5306 26.4053C59.5306 25.8526 60.4257 25.1868 60.9092 24.8262C60.872 24.7894 60.5745 24.6788 60.4629 24.6051C60.091 24.8683 58.6753 25.8237 58.6753 26.6712C58.6753 27.7055 60.0538 28.0371 61.3182 28.0371C62.4365 28.0371 63.5176 27.4476 64.1498 27.1133C66.3705 25.6958 68.5095 24.1564 70.5567 22.5022C71.6723 21.5784 72.0442 20.731 72.0442 19.6966C72.0442 18.3307 69.5499 17.9254 69.3268 14.6039C69.2153 12.4273 68.9921 11.7641 68.7318 11.7641C68.1713 11.7641 67.6879 13.1274 66.0118 13.1274C64.782 13.1274 65.0821 11.4667 64.782 11.4667C64.2985 11.6167 64.2985 15.6382 62.3249 17.5569" fill="#595959"/>
<path d="M74.0963 13.3253C73.4243 13.3253 73.2012 12.8463 73.2012 12.2568C73.2012 11.4435 73.4987 10.6776 74.0963 10.6776C74.5798 10.6776 74.9145 11.3409 74.9516 12.3015C74.9516 12.9647 74.5798 13.3332 74.0963 13.3332" fill="#B3B3B3" fill-opacity="0.63"/>
</g>
<defs>
<clipPath id="clip0_161_2947">
<rect width="136" height="43" fill="white" transform="translate(0.921875)"/>
</clipPath>
</defs>
</svg>
