<svg width="37" height="26" viewBox="0 0 37 26" fill="none" xmlns="http://www.w3.org/2000/svg">
<g clip-path="url(#clip0_161_3156)">
<path d="M36.1627 4.42784C35.746 2.88176 34.5182 1.66411 32.9593 1.25088C30.1337 0.5 18.8034 0.5 18.8034 0.5C18.8034 0.5 7.47306 0.5 4.64738 1.25088C3.08849 1.66417 1.86072 2.88176 1.44401 4.42784C0.68689 7.23021 0.68689 13.0771 0.68689 13.0771C0.68689 13.0771 0.68689 18.924 1.44401 21.7263C1.86072 23.2724 3.08849 24.4393 4.64738 24.8526C7.47306 25.6034 18.8034 25.6034 18.8034 25.6034C18.8034 25.6034 30.1336 25.6034 32.9593 24.8526C34.5182 24.4393 35.746 23.2724 36.1627 21.7263C36.9198 18.924 36.9198 13.0771 36.9198 13.0771C36.9198 13.0771 36.9198 7.23021 36.1627 4.42784ZM15.0977 18.3856V7.76856L24.5676 13.0772L15.0977 18.3856Z" fill="white"/>
</g>
<defs>
<clipPath id="clip0_161_3156">
<rect width="36.3567" height="25.1034" fill="white" transform="translate(0.625 0.5)"/>
</clipPath>
</defs>
</svg>
