<svg width="216" height="25" viewBox="0 0 216 25" fill="none" xmlns="http://www.w3.org/2000/svg">
<path fill-rule="evenodd" clip-rule="evenodd" d="M161.42 14.753L151.188 0.119019H156.78L163.681 10.113L170.7 0.119019H176.173L165.941 14.753V24.628H161.42V14.753Z" fill="white" fill-opacity="0.63"/>
<path fill-rule="evenodd" clip-rule="evenodd" d="M27.6914 24.628V0.119019H44.11V4.75906H32.2125V10.113H41.7305V14.753H32.2125V20.1069H44.11V24.628H27.6914Z" fill="white" fill-opacity="0.63"/>
<path fill-rule="evenodd" clip-rule="evenodd" d="M134.651 24.628H130.01V0H140.837C145.239 0 148.928 3.68827 148.928 8.20935C148.928 12.0166 146.429 15.1099 142.979 16.1807L148.809 24.628H143.217L137.625 16.5376H134.532V24.628H134.651ZM134.651 4.75903V12.0165H140.718C142.741 12.0165 144.288 10.3509 144.288 8.3283C144.288 6.30571 142.622 4.64008 140.718 4.64008H134.651V4.75903Z" fill="white" fill-opacity="0.63"/>
<path fill-rule="evenodd" clip-rule="evenodd" d="M55.0557 24.628H50.5347V0.119019H55.1747L66.7154 16.8946V0.119019H71.3554V24.628H66.5964L55.0557 8.0904V24.628Z" fill="white" fill-opacity="0.63"/>
<path fill-rule="evenodd" clip-rule="evenodd" d="M215.197 24.628H210.557V4.75906H208.059V0.119019H215.197V24.628Z" fill="white" fill-opacity="0.63"/>
<path fill-rule="evenodd" clip-rule="evenodd" d="M96.9354 4.75906H89.6778V24.628H85.0378V4.75906H77.7803V0.119019H96.9354V4.75906Z" fill="white" fill-opacity="0.63"/>
<path fill-rule="evenodd" clip-rule="evenodd" d="M203.18 24.628H187.119L197.113 10.2319C197.707 9.39912 198.064 8.56631 198.064 7.61451C198.064 6.30577 196.875 4.75906 194.971 4.75906C192.948 4.75906 191.759 6.18679 191.759 8.0904H187.119C187.119 3.56933 190.569 0.119019 194.971 0.119019C199.373 0.119019 202.704 3.5693 202.704 7.73345C202.704 9.75604 202.229 11.0648 201.039 12.8494L196.042 20.1069H203.18V24.628Z" fill="white" fill-opacity="0.63"/>
<path fill-rule="evenodd" clip-rule="evenodd" d="M119.065 0.119019H123.705V14.6341C123.705 20.2259 119.184 24.747 113.592 24.747C108 24.747 103.479 20.2259 103.479 14.6341V0.119019H108.119V14.3961C108.119 17.4895 110.618 20.1069 113.711 20.1069C116.804 20.1069 119.303 17.4895 119.303 14.3961V0.119019H119.065Z" fill="white" fill-opacity="0.63"/>
<path fill-rule="evenodd" clip-rule="evenodd" d="M18.6493 18.0843L21.2667 21.8915C19.1252 23.6762 16.3887 24.747 13.2954 24.747C6.51374 24.747 0.921875 19.2741 0.921875 12.3735C0.921875 5.59188 6.39477 0 13.2954 0C16.2697 0 19.1252 1.07081 21.2667 2.85544L18.6493 6.66264C17.2215 5.35391 15.3179 4.64008 13.4143 4.64008C9.1312 4.64008 5.79988 8.09037 5.79988 12.2545C5.79988 16.5376 9.25017 19.8689 13.4143 19.8689C15.4369 20.1069 17.2215 19.393 18.6493 18.0843Z" fill="white" fill-opacity="0.63"/>
</svg>
