<svg width="157" height="39" viewBox="0 0 157 39" fill="none" xmlns="http://www.w3.org/2000/svg">
<path d="M95.7321 11.0902C93.2279 11.0902 91.2609 11.6274 89.2929 12.6997C89.2929 6.97539 89.2929 1.78827 89.4726 0L77.4857 2.14572V3.21909L78.7378 3.39782C80.3463 3.75526 80.8856 4.64888 81.24 6.79667C81.6005 11.0902 81.4197 33.9885 81.24 37.7458C84.4601 38.4618 87.86 38.999 91.2598 38.999C100.742 38.999 106.466 33.0949 106.466 23.7919C106.466 16.4581 101.815 11.0902 95.7321 11.0902ZM91.6173 37.0299C90.9014 37.0299 90.0057 37.0299 89.4706 36.8522C89.2908 34.348 89.1131 23.7919 89.2908 14.4901C90.3642 14.1316 91.0791 13.9528 91.9747 13.9528C95.9129 13.9528 98.0596 18.6038 98.0596 24.3271C98.0586 31.4853 95.3746 37.0299 91.6173 37.0299ZM32.4019 0.714895H0.915527V2.32444L2.70483 2.50317C5.02927 2.86061 5.92496 4.29144 6.28137 7.69028C6.81961 14.1305 6.63985 25.76 6.28137 31.3035C5.92392 34.7034 5.03031 36.314 2.70483 36.4906L0.915527 36.8501V38.281H21.1309V36.8501L18.9842 36.4906C16.6587 36.3129 15.7641 34.7034 15.4066 31.3035C15.2269 28.977 15.0481 25.2197 15.0481 20.5698L19.3416 20.7485C22.0256 20.7485 23.2767 22.8952 23.8139 25.9356H25.4244V13.238H23.8139C23.2756 16.2794 22.0256 18.4251 19.3416 18.4251L15.0492 18.6048C15.0492 12.522 15.2279 6.7977 15.4076 3.39885H21.6681C26.4999 3.39885 29.0041 6.43922 30.7923 11.8071L32.5817 11.2699L32.4019 0.714895Z" fill="white" fill-opacity="0.63"/>
<path d="M42.5996 10.7327C51.5451 10.7327 56.0173 16.8155 56.0173 24.8653C56.0173 32.5576 51.0079 38.9999 42.0624 38.9999C33.118 38.9999 28.6458 32.9161 28.6458 24.8653C28.6458 17.1729 33.6541 10.7327 42.5996 10.7327ZM42.0624 12.522C38.1264 12.522 37.053 17.8888 37.053 24.8653C37.053 31.663 38.8423 37.2086 42.4209 37.2086C46.5326 37.2086 47.608 31.8417 47.608 24.8653C47.608 18.0676 45.8208 12.522 42.0624 12.522ZM108.79 25.045C108.79 17.7101 113.441 10.7327 122.566 10.7327C130.077 10.7327 133.657 16.2793 133.657 23.6132H117.019C116.839 30.2321 120.059 35.0629 126.501 35.0629C129.363 35.0629 130.794 34.349 132.584 33.0959L133.298 33.9895C131.509 36.4937 127.574 38.9999 122.566 38.9999C114.515 38.9989 108.79 33.2746 108.79 25.045ZM117.019 21.6462L125.427 21.4664C125.427 17.8888 124.89 12.522 121.85 12.522C118.809 12.522 117.197 17.5304 117.019 21.6462ZM154.949 12.1645C152.802 11.2688 149.94 10.7327 146.72 10.7327C140.102 10.7327 135.985 14.6677 135.985 19.3197C135.985 23.9717 139.024 25.9386 143.322 27.3705C147.794 28.979 149.047 30.2321 149.047 32.3789C149.047 34.5257 147.436 36.4926 144.573 36.4926C141.176 36.4926 138.669 34.5257 136.702 29.1577L135.449 29.5173L135.629 37.3883C137.776 38.2819 141.711 38.9989 145.111 38.9989C152.088 38.9989 156.561 35.4193 156.561 29.8747C156.561 26.1174 154.592 23.9717 149.941 22.1813C144.931 20.2143 143.144 18.9622 143.144 16.6357C143.144 14.3102 144.756 12.6997 146.903 12.6997C150.121 12.6997 152.268 14.6677 153.88 19.4984L155.132 19.1409L154.949 12.1645ZM79.2731 11.4486C76.2327 9.66136 70.8648 10.5539 68.0032 16.9952L68.1809 10.7337L56.1961 13.0592V14.1325L57.4482 14.3113C59.0598 14.491 59.7736 15.3846 59.9534 17.7112C60.3108 22.0047 60.1321 29.5193 59.9534 33.2756C59.7736 35.4203 59.0598 36.4937 57.4482 36.6734L56.1961 36.8532V38.284H72.8329V36.8532L70.6861 36.6734C68.8979 36.4937 68.3606 35.4203 68.1809 33.2756C67.8234 29.8757 67.8234 23.078 68.0032 18.7845C68.8968 17.5314 72.8329 16.4591 76.4104 18.7845L79.2731 11.4486Z" fill="white" fill-opacity="0.63"/>
</svg>
