<svg width="30" height="33" viewBox="0 0 30 33" fill="none" xmlns="http://www.w3.org/2000/svg">
<g clip-path="url(#clip0_305_121)">
<path d="M7.26799 28.6891H1.34676V9.70322H7.26799V28.6891ZM4.30419 7.11338C2.41077 7.11338 0.875 5.55186 0.875 3.6666C0.875 2.76105 1.23629 1.89258 1.87939 1.25225C2.52248 0.611928 3.39471 0.252197 4.30419 0.252197C5.21366 0.252197 6.08589 0.611928 6.72898 1.25225C7.37208 1.89258 7.73337 2.76105 7.73337 3.6666C7.73337 5.55186 6.19696 7.11338 4.30419 7.11338ZM29.4292 28.6891H23.5208V19.4469C23.5208 17.2442 23.4761 14.4195 20.4422 14.4195C17.3636 14.4195 16.8919 16.8126 16.8919 19.2882V28.6891H10.977V9.70322H16.656V12.2931H16.7389C17.5294 10.8014 19.4604 9.22715 22.3414 9.22715C28.334 9.22715 29.4356 13.1563 29.4356 18.2599V28.6891H29.4292Z" fill="white"/>
</g>
<defs>
<clipPath id="clip0_305_121">
<rect width="28.5606" height="32.5" fill="white" transform="translate(0.875 0.25)"/>
</clipPath>
</defs>
</svg>
